<?xml version="1.0" encoding="UTF-8" standalone="no"?><!DOCTYPE svg PUBLIC "-//W3C//DTD SVG 1.1//EN" "http://www.w3.org/Graphics/SVG/1.1/DTD/svg11.dtd"><svg width="100%" height="100%" viewBox="0 0 397 290" version="1.1" xmlns="http://www.w3.org/2000/svg" xmlns:xlink="http://www.w3.org/1999/xlink" xml:space="preserve" xmlns:serif="http://www.serif.com/" style="fill-rule:evenodd;clip-rule:evenodd;stroke-linejoin:round;stroke-miterlimit:2;"><path id="bird" d="M202.112,112.401c2.347,-3.535 5.681,-3.042 8.27,-2.362c1.615,0.424 3.767,3.136 3.675,4.703c-0.134,2.291 -1.486,5.53 -3.323,6.542c-16.297,8.973 -29.237,22.577 -45.046,32.241c-5.473,3.346 -9.611,8.806 -14.726,12.833c-3.469,2.73 -7.812,3.583 -12.291,4.287c-7.086,1.115 -12.551,-6.188 -9.516,-13.468c1.14,-2.733 1.78,-5.674 2.667,-8.515c0.168,-0.538 0.426,-1.049 0.642,-1.572c-0.668,-0.012 -1.683,-0.313 -1.949,0.008c-2.72,3.277 -5.129,6.829 -8.004,9.954c-2.848,3.095 -5.809,6.298 -9.31,8.526c-4.185,2.663 -9.538,-0.711 -9.874,-5.654c-0.369,-5.428 -0.027,-10.577 4.794,-14.341c0.61,-0.476 0.433,-1.96 0.62,-2.976c-0.842,0.191 -1.869,0.136 -2.498,0.611c-7.692,5.804 -16.521,9.975 -23.348,17.099c-2.756,2.876 -7.113,4.162 -10.549,6.459c-2.439,1.629 -4.496,0.994 -5.514,-1.104c-2.323,-4.782 -6.73,-8.165 -8.226,-13.644c-0.585,-2.142 -1.303,-3.222 0.519,-4.719c0.446,-0.367 0.655,-1.023 0.973,-1.546c-0.68,-0.144 -1.446,-0.567 -2.027,-0.388c-4.367,1.344 -8.856,2.456 -12.999,4.324c-4.66,2.103 -9.424,1.639 -14.155,1.448c-2.938,-0.119 -6.053,-7.256 -5.008,-10.541c2.275,-7.15 6.383,-13.307 12.117,-17.849c12.732,-10.084 26.437,-18.958 40.989,-26.035c12.666,-6.161 25.976,-11.152 39.609,-15.114c7.046,-2.048 13.829,-4.94 21.158,-6.091c4.102,-0.644 8.092,-1.998 12.191,-2.667c16.206,-2.646 31.598,-7.812 46.54,-14.501c2.072,-0.927 4.402,-1.334 6.65,-1.794c4.843,-0.991 9.909,-1.406 13.042,-6.084c0.376,-0.562 1.088,-1.279 1.647,-1.281c8.748,-0.035 13.245,-6.707 18.835,-11.785c8.381,-7.614 16.35,-15.886 25.593,-22.294c9.841,-6.823 20.935,-12.006 33.499,-11.79c4.489,0.077 8.96,0.964 13.448,1.4c4.246,0.412 8.473,0.447 12.763,1.119c5.456,0.856 11.388,1.453 17.162,-0.924c3.584,-1.475 7.893,-1.257 11.892,-1.641c5.955,-0.573 11.93,-0.927 17.88,-1.537c2.777,-0.284 5.975,-2.07 8.158,-1.172c2.998,1.233 4.905,0.857 7.859,0.089c2.557,-0.665 6.181,1.383 8.8,3.062c0.981,0.629 0.479,3.605 0.611,5.513c0.176,2.557 -1.106,3.64 -3.545,4.46c-10.814,3.632 -21.519,7.586 -32.309,11.292c-1.536,0.527 -3.321,0.465 -4.988,0.448c-7.137,-0.069 -13.857,1.617 -20.373,4.432c-2.717,1.174 -5.586,2.847 -8.379,2.832c-8.209,-0.043 -13.857,5.374 -19.823,9.323c-7.741,5.122 -14.763,11.552 -21.301,18.2c-5.522,5.614 -9.442,12.357 -10.875,20.637c-0.907,5.242 -0.987,9.922 -0.042,15.146c0.7,3.87 -1.351,8.192 -1.921,12.347c-1.779,12.962 -9.919,22.661 -16.802,32.996c-1.701,2.556 -3.709,4.929 -5.741,7.24c-5.201,5.915 -5.061,13.317 0.199,18.856c12.819,13.497 23.323,28.547 30.953,45.621c4.426,9.903 7.219,20.251 9.898,30.683c2.167,8.438 3.52,16.912 1.376,25.524c-0.424,1.704 -1.877,3.159 -2.882,4.712c-4.111,6.354 -5.452,7.272 -8.147,9.135c-3.233,2.236 -5.869,1.987 -8.125,-0.941c-4.299,-5.579 -8.833,-11.045 -12.482,-17.037c-4.637,-7.612 -8.475,-15.709 -12.701,-23.573c-0.55,-1.023 -1.365,-1.904 -2.056,-2.851c-0.295,1.015 -0.846,2.03 -0.845,3.045c0.005,10.676 -3.384,20.574 -6.213,30.704c-1.495,5.352 -4.615,8.702 -8.129,12.199c-3.925,3.906 -7.197,3.859 -11.161,0.274c-2.099,-1.897 -4.527,-3.427 -6.672,-5.278c-4.368,-3.767 -5.868,-8.874 -6.329,-14.38c-0.241,-2.887 -0.33,-5.787 -0.488,-8.682c-3.569,1.284 -2.306,5.108 -3.912,7.48c-2.713,4.004 -5.079,8.241 -7.6,12.376c-1.561,2.561 -3.256,5.049 -4.681,7.683c-2.6,4.806 -3.521,5.421 -9.015,4.69c-0.87,-0.115 -1.733,-0.968 -2.416,-1.662c-1.349,-1.371 -2.381,-3.112 -3.877,-4.27c-4.997,-3.87 -6.058,-9.29 -6.551,-15.091c-0.216,-2.532 -1.137,-5.001 -1.396,-7.534c-0.742,-7.236 0.107,-14.17 4.367,-20.379c0.516,-0.753 0.549,-1.838 0.806,-2.768c-0.842,0.328 -1.936,0.425 -2.486,1.022c-4.056,4.406 -8.056,8.867 -11.958,13.41c-1.516,1.765 -2.965,3.666 -4.045,5.716c-4.093,7.767 -11.227,10.107 -19.182,10.788c-1.381,0.119 -3.614,-0.841 -4.219,-1.966c-4.431,-8.241 -7.168,-16.917 -2.54,-25.947c4.599,-8.975 9.732,-17.675 14.58,-26.525c5.284,-9.645 10.653,-19.249 15.673,-29.032c1.543,-3.005 1.992,-6.56 3.064,-9.823c1.227,-3.735 2.656,-7.243 6.794,-8.942c3.95,-1.621 6.639,-0.083 6.511,4.123c-0.022,0.739 0.304,1.708 -0.049,2.185c-4.584,6.186 -4.982,14.178 -9.354,20.6c-4.884,7.171 -8.536,15.175 -12.812,22.767c-4.622,8.207 -9.141,16.483 -14.102,24.483c-2.935,4.731 -2.17,9.722 -2.06,14.655c0.067,2.994 3.407,4.218 5.815,2.367c1.551,-1.192 2.869,-2.706 4.206,-4.155c5.427,-5.881 10.62,-11.996 16.308,-17.612c3.176,-3.135 4.949,-6.616 6.22,-10.8c2.119,-6.976 4.883,-13.755 7.277,-20.651c0.677,-1.951 1.06,-4.011 1.499,-6.039c1.013,-4.676 5.417,-9.894 10.721,-6.579c3.129,1.955 3.446,4.516 1.937,7.305c-5.056,9.354 -4.836,20.106 -8.049,29.955c-0.62,1.899 1.359,4.504 1.226,6.728c-0.519,8.705 1.109,17.413 -0.917,26.181c-0.882,3.821 0.796,8.255 1.453,12.387c0.094,0.592 1.085,1.553 1.489,1.473c0.77,-0.152 1.709,-0.78 2.071,-1.474c6.565,-12.61 12.803,-25.211 15.543,-39.501c1.457,-7.594 0.55,-14.95 1.048,-22.392c0.125,-1.865 -1.311,-3.836 -2.033,-5.756c-1.033,-2.745 -1.504,-5.326 0.436,-8.052c1.929,-2.713 4.596,-2.722 7.171,-2.233c1.284,0.244 3.082,1.773 3.294,2.963c0.831,4.668 1.115,9.433 1.621,14.16c0.48,4.484 0.841,8.986 1.513,13.441c0.836,5.533 2.436,10.997 2.763,16.547c0.255,4.301 1.982,7.789 4.378,10.778c3.163,3.945 6.101,7.687 6.239,13.037c0.025,0.959 1.311,1.886 2.015,2.827c0.283,-1.043 0.634,-2.073 0.837,-3.132c0.964,-5.033 2.202,-10.04 2.745,-15.12c0.691,-6.455 1.599,-13.494 -1.492,-19.166c-4.246,-7.791 -5.035,-16.233 -7.18,-24.437c-0.344,-1.317 -0.879,-2.594 -1.427,-3.845c-2.244,-5.126 -1.769,-6.965 2.717,-10.2c2.831,-2.042 6.34,-1.467 7.494,2.007c2.552,7.687 8.605,13.132 12.108,20.153c2.956,5.924 6.346,11.707 8.544,17.907c1.509,4.253 3.448,7.928 5.96,11.638c3.045,4.501 5.565,9.535 7.327,14.675c1.673,4.885 5.398,7.739 8.493,11.306c2.003,2.31 3.616,1.23 4.558,-0.594c1.031,-1.998 1.592,-4.332 1.918,-6.583c1.189,-8.216 -1.29,-16.054 -3.468,-23.716c-2.865,-10.078 -6.424,-20.01 -10.431,-29.697c-3.486,-8.43 -8.99,-15.833 -15.122,-22.558c-6.28,-6.887 -13.025,-13.363 -19.768,-19.809c-3.031,-2.898 -3.599,-5.253 -1.642,-9.361c5.064,-10.629 12.076,-19.836 19.18,-29.054c2.12,-2.75 4.497,-5.556 5.66,-8.737c2.676,-7.322 7.826,-14.628 6.027,-22.429c-1.514,-6.559 -0.368,-13.127 -2.152,-19.696c-1.081,-3.981 0.704,-9.65 4.454,-13.395c10.297,-10.283 20.216,-20.982 31.001,-30.725c7.199,-6.503 16.369,-10.078 25.839,-12.478c7.142,-1.81 14.265,-3.696 21.43,-5.409c1.84,-0.44 3.804,-0.401 5.716,-0.495c1.716,-0.085 3.592,0.379 5.12,-0.171c2.332,-0.838 4.426,-2.341 6.621,-3.562c-2.367,-0.24 -4.796,-0.938 -7.088,-0.628c-5.059,0.686 -10.099,1.675 -15.054,2.913c-8.266,2.066 -16.312,1.701 -24.724,0.182c-8.488,-1.532 -17.409,-2.219 -25.95,-1.37c-6.106,0.607 -12.075,4.003 -17.786,6.804c-6.633,3.252 -12.191,7.897 -16.219,14.384c-1.404,2.261 -4.435,3.466 -6.553,5.344c-2.18,1.931 -4.265,3.997 -6.194,6.178c-5.638,6.378 -12.696,9.842 -20.884,12.188c-11.607,3.327 -22.821,8.002 -34.296,11.819c-13.019,4.33 -25.962,9.138 -39.293,12.187c-7.2,1.647 -14.812,1.944 -21.742,4.814c-11.597,4.802 -24.17,6.999 -35.199,13.269c-4.584,2.606 -9.391,4.621 -14.274,6.631c-5.476,2.254 -10.243,6.278 -15.232,9.658c-6.609,4.477 -14.239,7.614 -19.257,14.198c-1.668,2.189 -2.911,4.701 -4.348,7.065c2.797,0.307 5.59,0.72 8.396,0.851c0.797,0.038 1.622,-0.769 2.451,-1.154c8.274,-3.842 16.569,-7.639 24.822,-11.526c5.782,-2.724 11.45,-5.693 17.281,-8.305c2.85,-1.276 5.891,0.317 7.76,3.154c1.745,2.649 1.611,4.698 -1.163,6.478c-1.964,1.261 -3.668,3.047 -5.766,3.956c-8.136,3.524 -14.067,9.761 -19.947,16.003c-1.088,1.155 -1.219,3.55 -1.103,5.328c0.044,0.672 1.171,3.678 3.409,1.144c0.706,-0.798 2.165,-0.894 2.974,-1.642c10.195,-9.427 21.961,-16.427 34.354,-22.49c1.445,-0.708 2.755,-1.701 4.104,-2.598c4.912,-3.267 8.348,-2.186 10.701,2.954c1.175,2.568 -0.012,3.865 -1.42,5.669c-1.375,1.761 -2.116,4.018 -3.136,6.057c1.705,-1.244 3.515,-2.369 5.087,-3.762c2.027,-1.796 3.594,-4.271 5.862,-5.588c2.022,-1.173 4.396,-2.678 7.246,-1.07c2.954,1.665 3.622,4.303 3.075,7.023c-1.179,5.863 -2.915,11.611 -4.265,17.442c-0.247,1.068 0.254,2.309 0.41,3.47c1.336,-0.185 2.974,0.061 3.957,-0.628c5.767,-4.04 11.406,-8.266 17.038,-12.496c4.341,-3.26 8.466,-6.825 12.938,-9.888c10.321,-7.072 19.682,-15.24 28.84,-24.472Zm13.69,156.506l5.679,6.161c-0.513,-2.647 -0.983,-5.304 -1.558,-7.937c-0.289,-1.324 -0.44,-2.885 -1.248,-3.831c-0.92,-1.078 -2.504,-1.589 -3.799,-2.346c0.309,1.182 0.711,2.35 0.896,3.551c0.148,0.953 0.03,1.947 0.03,4.402Zm-180.185,-206.825c10.77,6.663 21.896,11.379 33.278,15.544c0.636,0.233 1.256,1.14 1.747,1.043c5.087,-1.005 4.974,2.222 4.534,5.555c-0.355,2.687 -4.721,5.553 -7.61,4.803c-2.628,-0.682 -5.579,-1.35 -7.572,-3.006c-4.813,-4 -10.677,-5.197 -16.213,-7.392c-3.59,-1.425 -6.69,-4.038 -10.179,-5.779c-9.096,-4.539 -16.901,-10.692 -23.379,-18.471c-2.841,-3.412 -5.583,-6.985 -7.811,-10.811c-4.117,-7.069 -2.184,-9.846 5.394,-13.915c8.019,-4.306 16.525,-6.836 24.958,-5.277c6.777,1.253 13.582,0.493 20.382,2.205c6.49,1.634 13.721,0.174 20.615,0.394c10.401,0.333 20.895,0.226 31.148,1.705c6.265,0.904 12.489,0.512 18.637,1.325c8.998,1.191 17.888,3.182 26.838,4.749c5.305,0.929 10.612,2.068 15.966,2.463c11.487,0.847 22.801,2.4 33.839,5.826c1.796,0.558 3.907,0.014 5.851,0.199c2.85,0.272 5.656,3.383 5.322,5.693c-0.335,2.32 -4.477,5.032 -6.989,4.257c-7.655,-2.36 -15.481,-3.313 -23.425,-4.314c-11.711,-1.476 -23.364,-3.295 -35.149,-4.376c-6.798,-0.624 -13.415,-3.178 -20.124,-4.822c-1.58,-0.387 -3.19,-0.767 -4.805,-0.88c-7.925,-0.553 -16.044,-0.121 -23.741,-1.732c-9.724,-2.034 -19.362,-0.668 -29.014,-1.238c-9.651,-0.57 -19.527,0.062 -28.893,-1.851c-6.862,-1.401 -13.077,-0.365 -19.547,0.398c-6.276,0.741 -8.439,4.852 -5.035,9.618c5.399,7.558 11.925,13.921 20.977,18.087Zm112.477,52.539c3.155,-3.649 5.718,-7.169 8.857,-10.064c0.988,-0.912 3.694,-0.608 5.297,-0.01c1.406,0.524 3.011,2.176 0.836,3.935c-1.822,1.472 -3.843,2.706 -5.594,4.251c-0.535,0.472 -0.47,1.624 -0.679,2.465c0.841,0.008 1.867,0.333 2.492,-0.03c3.284,-1.91 6.57,-3.644 8.847,-7.092c2.382,-3.607 4.057,-3.297 7.071,-1.231c3.125,2.142 1.177,4.621 -0.028,5.602c-7.197,5.862 -15.685,9.404 -24.5,12.03c-1.477,0.44 -3.851,-0.434 -5.147,-1.504c-1.79,-1.478 -0.984,-3.365 0.571,-4.976c0.759,-0.786 1.085,-1.991 1.977,-3.376Zm-85.838,-55.498c-3.871,-2.935 -0.721,-5.814 0.455,-6.735c2.771,-2.171 6.316,-3.569 9.754,-4.573c1.444,-0.422 3.957,0.436 5.033,1.595c2.799,3.018 7.576,4.875 6.774,10.459c-0.096,0.673 2.359,1.724 3.646,2.579c0.68,0.452 1.39,0.858 2.087,1.284c-0.788,0.608 -1.536,1.278 -2.371,1.814c-3.989,2.564 -8.388,1.966 -12.32,0.522c-4.436,-1.629 -8.476,-4.337 -13.058,-6.945Z"/></svg>