<?xml version="1.0" encoding="utf-8"?><!DOCTYPE svg PUBLIC "-//W3C//DTD SVG 1.1//EN" "http://www.w3.org/Graphics/SVG/1.1/DTD/svg11.dtd"><svg version="1.1" id="Contours" xmlns="http://www.w3.org/2000/svg" xmlns:xlink="http://www.w3.org/1999/xlink" x="0px" y="0px" width="1442.992432px" height="1442.992432px" viewBox="-0.000000 0.000000 1442.992432 1407.379395" enable-background="new 0 0 1442.992432 1442.992432" xml:space="preserve" stroke="black" fill="none" stroke-linecap='round' stroke-linejoin='round'><path class="selected"  fill="#000000" opacity="1.000000" stroke="none" 
 	d="
M472.732192 618.609925 C484.982223 599.000245 496.766738 579.501649 509.104324 560.359498 C513.179519 554.036805 518.338760 548.299805 523.609512 542.886170 C532.237197 534.024598 541.900832 526.130006 550.139297 516.941529 C560.217239 505.701417 572.779983 497.777100 584.649185 488.941682 C602.423477 475.710572 621.420059 464.320222 641.839919 455.687318 C656.583511 449.454163 671.630630 443.751405 686.930068 439.082551 C698.283401 435.617921 710.197830 433.780152 721.982620 432.026612 C728.289810 431.088075 734.854080 431.977601 741.297744 431.834168 C752.835525 431.577271 763.354507 435.452424 773.559829 440.072694 C782.675552 444.199738 789.486465 451.369386 796.028579 458.821809 C804.069351 467.981538 811.897353 477.672425 824.846999 480.183350 C835.424026 482.234223 846.125076 483.679688 856.650893 485.950715 C865.749648 487.913850 874.774001 490.357545 883.662185 493.130494 C898.056045 497.621156 910.227310 506.137269 921.952956 515.331483 C926.607986 518.981507 931.328018 522.552857 935.896255 526.308656 C943.336074 532.425416 947.286697 541.303162 953.203567 548.533936 C964.584060 562.441468 968.936416 579.411195 975.630019 595.328431 C978.073867 601.139832 978.274917 608.002564 978.900710 614.443848 C979.756118 623.249024 979.981521 632.113709 980.583144 640.945680 C981.422744 653.271241 979.845535 665.226319 977.292312 677.361268 C973.821609 693.856690 968.667617 709.815919 962.676956 725.361878 C956.664748 740.963807 948.866714 755.951234 938.242385 769.259217 C932.357620 776.630494 927.398025 784.737977 921.968093 792.476258 C920.142227 795.078492 918.328994 797.724915 916.207900 800.078980 C903.067886 814.661683 890.217849 829.534547 876.503188 843.559693 C868.278884 851.970277 858.865066 859.276734 849.603347 866.595399 C841.803970 872.758546 833.849990 878.919984 825.248184 883.826356 C813.607314 890.466187 801.461257 896.311463 789.194961 901.735596 C778.786575 906.338319 768.036575 910.291688 757.181594 913.721742 C748.671768 916.410767 739.826919 918.176270 731.024062 919.756593 C724.395034 920.946656 717.573623 921.020631 710.881240 921.915833 C705.745193 922.602845 700.681045 923.818421 695.574844 924.743165 C694.613906 924.917237 693.605483 924.852784 692.618850 924.855470 C688.728835 924.866212 684.833267 924.989930 680.950332 924.824097 C676.915359 924.651673 672.882766 924.283021 668.867141 923.837464 C663.686111 923.262818 658.528213 922.482789 653.351028 921.869752 C644.603957 920.834046 635.746658 920.391358 627.124954 918.722108 C616.908340 916.744080 606.915725 913.633546 596.784133 911.187318 C576.126174 906.199830 556.593276 897.917603 537.374954 889.280274 C524.399001 883.448426 511.524307 875.978272 500.942611 866.601991 C488.670547 855.728028 476.179733 844.316651 469.114272 828.622376 C465.503097 820.600953 460.545883 813.184266 456.954849 805.155274 C453.754989 798.001099 451.178634 790.494630 449.114944 782.928773 C447.458602 776.856202 446.695937 770.491151 446.050338 764.203126 C445.117416 755.117310 444.891982 745.957703 443.919235 736.877381 C442.763259 726.086549 445.676467 715.778748 446.686172 705.246095 C448.577255 685.518800 454.784805 666.972413 460.202804 648.230897 C463.130508 638.103700 468.315536 628.628968 472.732192 618.609925 M848.482253 764.859986 C854.648879 757.413758 861.271987 750.294373 866.886245 742.452638 C878.210952 726.634766 887.657729 709.738587 895.101516 691.669984 C899.872329 680.089661 902.720901 668.158509 903.858230 655.838197 C904.534622 648.510377 904.583999 641.006837 903.829360 633.694398 C902.892288 624.614381 901.497573 615.468751 899.097122 606.680055 C895.782546 594.544190 890.419448 583.102723 882.919692 572.924867 C874.939956 562.095643 865.946792 552.059022 853.207229 546.721314 C842.983535 542.437867 833.140029 537.091798 821.281020 537.399842 C814.983291 537.563416 808.629409 534.915162 802.270644 533.693360 C799.700637 533.199464 797.024246 533.275758 794.440749 532.832887 C785.119582 531.235047 775.811294 529.559022 766.509719 527.850037 C758.669997 526.409486 750.679702 525.450196 743.067275 523.216798 C736.770339 521.369447 731.077712 517.546998 724.851455 515.354737 C713.576858 511.385011 705.341506 500.178712 691.980056 501.408662 C686.597793 501.904115 680.614333 501.751649 676.052932 504.112733 C665.007644 509.830201 654.499221 516.639344 644.054153 523.438294 C638.967788 526.749207 634.705093 531.303590 629.722671 534.800965 C619.537307 541.950623 610.145950 549.760133 601.831313 559.204713 C590.012710 572.629273 575.589797 583.726258 566.566238 599.660889 C563.476089 605.117677 559.021560 609.820374 556.091384 615.345460 C550.385330 626.104981 544.705032 636.955262 540.150283 648.227113 C535.397292 659.989503 531.507644 672.162415 528.150588 684.405396 C525.930862 692.500367 525.021133 701.001893 524.071609 709.383363 C523.253066 716.609254 523.029434 723.919129 522.885024 731.198670 C522.795669 735.703492 523.807998 740.252015 523.506301 744.725709 C522.993545 752.329530 522.608047 759.770692 525.571853 767.070496 C526.558120 769.499696 526.613906 772.326661 526.969985 774.988465 C528.804763 788.705750 534.857681 800.884583 545.331130 809.191834 C559.783950 820.655396 575.596267 830.449525 593.880996 835.398805 C600.686660 837.240846 606.992629 840.953492 613.809341 842.724305 C625.914443 845.868958 638.244827 848.140626 650.460586 850.868592 C654.246475 851.714112 657.927871 853.496156 661.724685 853.724549 C669.311477 854.180970 676.954482 854.102967 684.556838 853.802796 C695.846328 853.356934 707.127578 852.622681 718.397903 851.811158 C722.723586 851.499635 727.104324 851.012757 731.295120 849.953675 C741.362319 847.409364 750.828689 843.434998 760.083267 838.556275 C768.323135 834.212586 777.103530 831.281251 784.550308 825.089478 C796.173904 815.424805 809.568679 808.066346 819.480056 796.108888 C828.385085 785.365479 838.436477 775.572266 848.482253 764.859986 z"/><path class="selected"  fill="#000000" opacity="1.000000" stroke="none" 
 	d="
M1142.982192 257.859925 C1151.315566 246.315583 1159.716567 235.321549 1167.963882 224.213288 C1176.862563 212.227418 1184.592788 199.270921 1196.029067 189.379639 C1208.779311 178.352006 1222.901016 170.251618 1240.412978 169.833161 C1251.250015 169.574189 1258.641494 175.011536 1263.936782 183.804261 C1267.160537 189.157380 1271.135391 194.425996 1269.958144 201.282151 C1267.825698 213.703278 1266.212173 226.141618 1256.003310 235.554765 C1247.024673 243.833482 1238.801406 252.952088 1230.479995 261.918366 C1215.883682 277.645997 1201.211929 293.317323 1187.088638 309.464173 C1180.435439 317.070466 1175.171890 325.874146 1168.936172 333.868104 C1160.153945 345.126374 1151.078018 356.156251 1142.080825 367.245728 C1135.999160 374.741669 1130.150771 382.460816 1123.628433 389.556519 C1115.987075 397.869782 1108.308730 406.333619 1099.569595 413.400727 C1091.112930 420.239472 1081.927261 427.054200 1071.916396 430.889771 C1056.576553 436.767091 1041.874648 433.973573 1029.773940 421.342194 C1024.192519 415.516053 1018.299026 409.953248 1019.124038 401.313325 C1019.571182 396.630250 1021.824966 392.003602 1023.828262 387.608735 C1028.413711 377.549165 1038.723525 373.545625 1046.514175 366.875703 C1054.834243 359.752534 1063.463149 352.977113 1071.578750 345.631715 C1078.343520 339.508912 1085.000015 333.156739 1090.920059 326.235200 C1100.285537 315.285371 1108.996841 303.776002 1117.981582 292.500733 C1123.371352 285.736970 1128.916763 279.089021 1134.081802 272.157655 C1137.344619 267.778992 1140.034927 262.973756 1142.982192 257.859925 z"/><path class="selected"  fill="#000000" opacity="1.000000" stroke="none" 
 	d="
M667.732192 1111.109925 C673.951125 1116.996278 674.500381 1124.960145 677.064224 1132.099427 C679.517715 1138.931214 675.495132 1144.601014 674.480117 1150.779237 C670.910781 1172.505555 659.572158 1191.669740 653.730911 1212.653382 C648.766616 1230.486756 642.784927 1248.037537 639.861160 1266.436219 C638.197097 1276.908021 634.912307 1287.117982 633.138259 1297.578187 C632.125320 1303.550721 632.826003 1309.797791 632.472732 1315.904847 C632.279128 1319.251160 631.483657 1322.561219 630.985793 1325.891541 C630.304824 1330.446107 629.343398 1334.986878 629.084182 1339.566590 C628.895644 1342.898499 630.067458 1346.304993 629.899612 1349.641175 C629.485122 1357.876649 628.489272 1366.082093 628.034805 1374.316590 C627.697158 1380.435365 629.203323 1386.922059 624.999160 1392.221375 C622.238906 1395.700867 618.867019 1398.702821 615.702468 1401.851868 C609.607864 1407.916200 601.603286 1408.110291 594.346877 1406.566834 C585.757217 1404.739808 577.650832 1400.574769 572.010818 1393.235658 C562.375808 1380.698182 558.520339 1366.403626 558.880752 1350.646180 C559.098403 1341.131409 557.811843 1331.576844 558.132278 1322.071473 C558.418777 1313.572205 559.968398 1305.114442 560.991287 1296.642030 C561.264053 1294.382630 561.987258 1292.127259 561.925063 1289.886170 C561.616042 1278.752747 566.028274 1268.595887 568.080154 1257.969178 C572.217910 1236.538148 582.929519 1217.573548 589.201431 1197.011659 C591.203872 1190.446961 592.246841 1183.805604 591.308852 1176.527650 C590.233291 1168.181825 592.006667 1159.509705 591.886184 1150.988587 C591.753372 1141.591981 593.491409 1132.633607 597.268569 1124.183045 C602.706741 1112.016419 612.351333 1104.999818 625.523513 1102.842103 C626.740554 1102.642640 628.015090 1102.383607 629.093826 1101.825379 C632.855850 1099.878846 636.373550 1098.397157 641.007156 1099.661927 C644.627456 1100.650208 649.348037 1098.603089 652.486831 1100.138612 C657.930740 1102.801820 662.529189 1107.193299 667.732192 1111.109925 z"/><path class="selected"  fill="#000000" opacity="1.000000" stroke="none" 
 	d="
M1141.982192 1169.859925 C1128.579849 1157.957581 1114.539687 1147.049012 1103.057876 1133.905701 C1088.101943 1116.785462 1072.539810 1100.083436 1059.744766 1081.041077 C1053.355483 1071.532044 1044.482803 1063.690614 1036.722427 1055.104798 C1033.319839 1051.340516 1029.993057 1047.500428 1026.452773 1043.869080 C1016.243545 1033.397157 1004.064712 1025.501160 991.715774 1017.899110 C980.466628 1010.973939 972.757095 1001.873963 970.925369 988.290162 C968.844009 972.855286 976.869399 954.995850 990.934707 948.733216 C1003.414504 943.176453 1016.349502 939.600282 1030.076797 947.593751 C1037.642227 951.999268 1044.623061 956.246766 1050.787124 962.763123 C1062.656509 975.310792 1074.616714 987.634583 1084.652602 1001.803834 C1090.156753 1009.574952 1097.105483 1016.310975 1103.231948 1023.656190 C1109.918350 1031.672669 1116.399673 1039.860169 1122.990127 1047.956849 C1124.018447 1049.220155 1125.176528 1050.376893 1126.233169 1051.618104 C1133.782607 1060.487244 1141.384170 1069.313294 1148.843032 1078.257874 C1154.601211 1085.163026 1159.950942 1092.418885 1165.881606 1099.167786 C1176.898452 1111.704774 1188.289199 1123.834534 1197.065444 1138.247620 C1206.923354 1154.437074 1204.833267 1169.343446 1190.360488 1181.642884 C1188.026870 1183.626038 1183.579482 1183.924867 1180.199111 1183.692567 C1174.571548 1183.306092 1168.687270 1182.696473 1163.510391 1180.658631 C1156.214492 1177.786805 1149.465225 1173.526551 1141.982192 1169.859925 z"/><path class="selected"  fill="#000000" opacity="1.000000" stroke="none" 
 	d="
M798.982192 201.859925 C797.097060 209.578400 795.399978 216.852784 793.276565 224.000459 C790.902786 231.990861 787.716995 239.757661 785.656387 247.819093 C783.002334 258.201936 781.742873 268.967652 778.693069 279.214356 C776.372024 287.012513 775.757705 295.561433 770.145217 302.264497 C764.313247 309.229707 756.854324 315.078706 748.081069 313.481629 C733.027786 310.741334 717.732497 307.122498 705.882949 296.147828 C702.046890 292.595002 703.345352 287.755280 704.810806 283.639497 C711.581863 264.623170 718.588393 245.690003 725.601028 226.760560 C731.541274 210.725663 738.090530 194.897950 743.482253 178.683274 C749.195083 161.502992 753.672683 143.916138 759.042861 126.616456 C763.159622 113.354539 767.990737 100.315430 772.185256 87.076234 C774.761367 78.945168 776.648391 70.598389 779.004714 62.394402 C781.910354 52.277558 785.039260 42.224896 787.956619 32.111314 C789.286208 27.501801 791.524490 23.795041 795.436538 20.725255 C800.436538 16.801764 804.271377 11.082896 809.684890 8.075589 C816.465896 4.308616 824.161331 1.195880 831.782607 0.160919 C843.876602 -1.481432 858.401260 9.708114 863.075271 21.831237 C864.986343 26.787854 864.177139 30.983949 862.017227 35.483071 C849.597610 61.353074 838.703872 87.814690 829.839736 115.157502 C824.525100 131.551362 817.634353 147.428025 811.765334 163.650483 C807.250930 176.128632 803.225173 188.783585 798.982192 201.859925 z"/><path class="selected"  fill="#000000" opacity="1.000000" stroke="none" 
 	d="
M113.732192 1031.609925 C129.096359 1019.579041 144.058868 1007.596558 159.371414 996.079469 C172.251540 986.391846 185.640472 977.383057 198.605239 967.804627 C205.571578 962.657777 211.901428 956.645631 218.896453 951.542115 C240.098632 936.073060 261.376815 920.701661 282.887710 905.667603 C287.410110 902.506898 292.103561 899.234681 298.627120 899.569093 C302.827316 899.784425 307.101821 896.870606 311.466079 895.930055 C319.468459 894.205506 327.103805 895.299195 334.140731 899.842408 C344.962264 906.829102 353.776473 915.225159 357.129165 928.373902 C358.950362 935.516419 355.116226 940.783814 352.063339 946.018006 C347.192825 954.368592 338.640334 958.763123 330.231521 962.802491 C315.234542 970.006715 299.613235 976.037110 285.094802 984.078248 C268.724136 993.145203 253.002593 1003.478211 237.512054 1014.015199 C220.383117 1025.666566 203.757705 1038.067445 187.095367 1050.388612 C183.385635 1053.131776 180.501434 1056.971864 177.127288 1060.191712 C163.764159 1072.944398 150.619338 1085.944764 136.847289 1098.241517 C130.701156 1103.729310 122.388381 1104.039735 114.802833 1101.677308 C107.945342 1099.541444 100.639983 1097.010560 95.186378 1092.605653 C85.642959 1084.897523 79.143997 1074.467713 81.331222 1061.520936 C82.007209 1057.519715 86.515411 1053.902161 89.818008 1050.670106 C94.802276 1045.792298 100.174018 1041.291688 105.573043 1036.865052 C107.967613 1034.901795 110.831405 1033.510682 113.732192 1031.609925 z"/><path class="selected"  fill="#000000" opacity="1.000000" stroke="none" 
 	d="
M351.232192 201.609925 C350.864486 200.908906 350.886306 200.331590 350.608901 200.025147 C341.303207 189.745301 330.915420 180.783524 319.616134 172.668244 C313.478408 168.260011 306.327407 163.787431 304.092178 155.842957 C299.911117 140.982636 306.749984 126.836762 322.175033 121.024705 C328.459884 118.656617 335.153152 115.740739 342.097518 116.972123 C354.742263 119.214295 367.380111 121.894151 377.052444 131.445954 C383.669784 137.980866 391.389114 143.789231 396.535537 151.340226 C406.149886 165.446610 414.423477 180.485337 422.937240 195.318497 C432.888381 212.656083 442.689712 230.085954 452.199233 247.668763 C459.911758 261.928986 467.271102 276.388245 474.460861 290.920594 C480.266097 302.654389 485.965408 314.472138 490.948806 326.566956 C493.236312 332.118653 494.180862 338.369172 494.861587 344.401337 C495.754592 352.314332 485.987869 367.313050 478.476425 367.292237 C473.530166 367.278535 467.569869 368.597016 462.428756 365.062440 C458.835769 362.592255 453.850662 362.168305 450.206130 359.747956 C436.921706 350.925690 425.969680 339.778413 418.241164 325.646211 C412.442153 315.042329 406.143997 304.696442 400.721053 293.907471 C397.489242 287.477784 396.017257 280.173646 392.885604 273.681580 C384.639571 256.587067 375.591995 239.874986 367.528426 222.698502 C363.640212 214.416169 357.864181 208.006287 351.232192 201.609925 z"/><path class="selected"  fill="#000000" opacity="1.000000" stroke="none" 
 	d="
M1320.982192 709.859925 C1311.430068 709.193238 1302.380142 708.494569 1293.324966 707.871522 C1287.580093 707.476136 1281.792861 706.643800 1276.087417 707.003846 C1269.481094 707.420777 1262.948013 708.958985 1256.375381 709.959473 C1245.503799 711.614442 1234.617812 713.176270 1223.760146 714.916505 C1222.138686 715.176392 1220.692519 716.563599 1219.073623 716.798890 C1209.539199 718.184632 1200.228164 721.661073 1190.273330 718.009339 C1183.589248 715.557435 1176.026260 715.387696 1169.489028 712.673585 C1157.345596 707.631837 1148.211685 698.715882 1146.249282 685.348695 C1144.714370 674.893739 1151.982314 667.813783 1159.769668 661.872193 C1167.086074 656.289796 1175.816421 655.097108 1184.586807 653.757569 C1189.617812 652.989198 1194.455459 651.028809 1199.450210 649.921265 C1202.460098 649.253907 1205.601333 649.159242 1208.689224 648.868409 C1212.602554 648.499818 1216.516860 648.108216 1220.439712 647.878724 C1227.293960 647.477906 1234.174697 647.415040 1241.008315 646.806519 C1250.580947 645.954102 1260.107803 644.587464 1269.680312 643.731141 C1274.156875 643.330689 1278.701919 643.434632 1283.202529 643.626160 C1288.920913 643.869508 1294.639175 644.306336 1300.332290 644.901063 C1304.741714 645.361817 1309.098525 646.315125 1313.504653 646.823548 C1317.423965 647.275758 1321.425918 647.935670 1325.308730 647.586427 C1332.931167 646.900880 1339.844131 650.058289 1347.163467 650.889161 C1354.816787 651.758057 1362.470840 652.693848 1370.069595 653.936646 C1373.394668 654.480470 1376.519058 656.299256 1379.844619 656.784730 C1395.209243 659.027894 1409.461562 664.463258 1423.563613 670.734376 C1432.425185 674.674989 1436.358413 682.452699 1440.917007 689.904115 C1442.010391 691.691346 1444.932388 693.960633 1441.009292 696.081055 C1440.838271 696.173463 1441.062393 696.997193 1441.102554 697.480286 C1441.395767 697.188477 1441.661147 696.858521 1441.991348 696.617371 C1442.240859 696.435059 1442.573379 696.366090 1442.869033 696.246644 C1442.640395 699.117799 1442.874526 702.134400 1442.031997 704.812318 C1441.395767 706.834473 1439.127578 708.279481 1438.026748 710.230286 C1433.439834 718.357056 1425.431655 721.168641 1417.326186 723.850465 C1408.010146 726.932740 1399.171768 724.168397 1390.126724 721.996461 C1382.021011 720.050172 1373.626846 719.323121 1365.378555 717.946473 C1359.815810 717.018006 1354.292739 715.855592 1348.738906 714.870667 C1342.623550 713.786073 1336.486465 712.823670 1330.372573 711.730653 C1327.392837 711.197877 1324.444717 710.489075 1320.982192 709.859925 z"/><path class="selected"  fill="#000000" opacity="1.000000" stroke="none" 
 	d="
M125.982192 537.859925 C130.423919 538.135011 134.369155 538.368165 138.306442 538.696717 C142.370895 539.035950 146.424209 539.507996 150.488342 539.851502 C158.706863 540.546265 166.938323 541.101014 175.146972 541.894288 C180.110824 542.374085 185.026977 543.549989 189.991973 543.757508 C194.746444 543.956239 199.545318 542.983460 204.308349 543.115357 C209.946426 543.271485 215.563506 544.102967 221.196746 544.553529 C223.813751 544.762818 226.507491 544.442445 229.062377 544.919434 C237.122909 546.424561 245.506530 547.229188 253.054778 550.144227 C259.934737 552.801270 265.483321 558.110658 270.149398 564.336366 C280.139236 577.665406 272.895278 589.386903 263.250015 595.732484 C256.288863 600.312257 248.658859 603.540650 239.733901 603.005311 C233.028060 602.603028 226.235290 603.871339 219.495651 603.726197 C215.654784 603.643494 211.849304 602.184998 208.014495 601.412415 C206.610015 601.129517 205.160049 600.843140 203.742477 600.892518 C196.157089 601.156800 188.576873 601.683961 180.991393 601.755921 C178.941543 601.775391 176.917007 600.125001 174.816787 599.929627 C165.887649 599.098817 156.921249 598.666138 147.993865 597.819947 C139.393722 597.004700 130.830230 595.126344 122.240653 595.062684 C113.338523 594.996644 104.824218 592.630372 96.135917 592.142396 C89.592216 591.774781 83.232063 590.762879 76.820815 589.826844 C71.047576 588.983949 65.289733 586.895081 59.570056 587.047120 C44.467254 587.448487 30.542548 582.949097 18.182510 575.501099 C8.223372 569.499879 -0.155218 560.485474 0.002182 547.105775 C0.127219 536.477235 9.851743 525.326722 20.137416 523.896729 C21.035079 523.771912 22.004785 524.166383 22.941154 524.318787 C28.145446 525.165894 33.348579 526.020203 38.554523 526.857056 C41.682315 527.359742 44.800044 527.992188 47.948478 528.282105 C51.747619 528.631959 55.603950 528.446778 59.381465 528.922486 C63.582092 529.451478 67.769492 530.275452 71.875816 531.314271 C76.830947 532.567872 81.392616 534.258668 86.954124 533.168946 C91.375846 532.302491 96.331352 534.243653 101.061347 534.848634 C109.196914 535.889283 117.341430 536.859925 125.982192 537.859925 z"/></svg>