<?xml version="1.0" encoding="UTF-8" standalone="no"?><!DOCTYPE svg PUBLIC "-//W3C//DTD SVG 1.1//EN" "http://www.w3.org/Graphics/SVG/1.1/DTD/svg11.dtd"><svg width="100%" height="100%" viewBox="0 0 553 332" version="1.1" xmlns="http://www.w3.org/2000/svg" xmlns:xlink="http://www.w3.org/1999/xlink" xml:space="preserve" xmlns:serif="http://www.serif.com/" style="fill-rule:evenodd;clip-rule:evenodd;stroke-linejoin:round;stroke-miterlimit:2;"><rect id="icon-black" x="1.458" y="-0" width="548.725" height="331.183" style="fill:none;"/><path d="M494.991,21.783c2.601,8.261 -4.089,17.099 -12.2,20.138c-8.112,3.038 -17.102,1.89 -25.712,0.943c-132.093,-14.52 -265.211,29.553 -379.287,97.716c-22.275,13.31 -44.122,27.638 -63.099,45.336c-3.105,2.895 -8.324,5.827 -10.978,2.514c-2.374,-2.963 0.583,-7.15 3.385,-9.711c110.919,-101.404 257.448,-161.789 407.296,-173.245c21.167,-1.619 42.813,-2.255 63.257,3.466c7.231,2.023 15.083,5.681 17.338,12.843Zm25.783,101.363c-37.079,-6.003 -74.965,-3.096 -112.374,0.284c-76.053,6.874 -153.15,15.952 -223.562,45.506c-45.597,19.139 -87.257,46.411 -128.274,74.035c-7.075,4.764 -15.201,9.772 -23.544,7.993c-8.345,-1.78 -14.04,-10.338 -14.581,-18.853c-0.541,-8.516 3.139,-16.797 8.008,-23.803c14.524,-20.9 38.818,-32.448 62.312,-42.234c139.493,-58.105 293.681,-86.35 443.165,-64.234c5.771,0.854 12.554,2.585 14.514,8.08c1.971,5.524 -2.689,11.6 -8.255,13.449c-5.565,1.85 -11.619,0.714 -17.409,-0.223Zm-100.785,35.42c1.572,-0.498 3.277,-0.985 4.839,-0.457c3.038,1.026 3.621,5.437 1.865,8.12c-1.755,2.683 -4.916,4.025 -7.895,5.21c-26.056,10.36 -52.789,20.092 -75.526,36.503c-9.183,6.628 -18.494,17.541 -14.189,28.017c1.92,4.671 -3.747,9.392 -8.795,9.211c-5.047,-0.182 -9.513,-3.156 -14.32,-4.707c-5.438,-1.754 -11.273,-1.666 -16.986,-1.562c-39.914,0.733 -81.155,1.754 -117.414,18.456c-8.12,3.741 -16.34,8.341 -25.278,8.161c-3.731,-0.075 -8.301,-2.034 -8.228,-5.764c0.059,-3.004 3.116,-4.932 5.795,-6.292l73.011,-37.058c5.367,-2.724 11.033,-5.726 14.004,-10.961c2.971,-5.234 1.651,-13.326 -4.039,-15.289c-4.632,-1.598 -2.444,-9.524 2.3,-10.75c4.744,-1.226 9.486,1.527 13.82,3.813c27.187,14.34 60.163,13.114 89.957,5.557c29.794,-7.557 57.777,-20.923 87.079,-30.208Zm-104.928,73.209c3.179,-14.136 12.708,-26.716 25.454,-33.605c-30.478,10.4 -63.964,6.78 -95.342,-0.466c0.051,6.889 -3.71,13.365 -8.71,18.104c-5,4.74 -11.177,8.015 -17.271,11.23l-19.235,10.149c37.604,-8.835 76.838,-10.68 115.104,-5.412Zm216.33,-59.928c10.556,0.459 17.839,12.237 16.88,22.759c-0.959,10.523 -7.859,19.534 -15.374,26.961c-22.317,22.053 -51.69,35.356 -80.967,46.633c-135.899,52.345 -284.869,70.354 -429.326,51.903c-3.508,-0.448 -7.36,-1.102 -9.604,-3.835c-2.244,-2.732 -1.03,-8.08 2.506,-8.128l136.792,-1.836c11.82,-0.159 23.647,-0.318 35.441,-1.112c62.396,-4.204 122.087,-25.986 180.788,-47.552c30.922,-11.36 62.028,-22.805 90.494,-39.384c18.602,-10.834 35.9,-23.761 52.729,-37.185c5.786,-4.615 12.247,-9.546 19.641,-9.224Z"/></svg>