<?xml version="1.0" encoding="UTF-8" standalone="no"?><!DOCTYPE svg PUBLIC "-//W3C//DTD SVG 1.1//EN" "http://www.w3.org/Graphics/SVG/1.1/DTD/svg11.dtd"><svg width="100%" height="100%" viewBox="0 0 392 390" version="1.1" xmlns="http://www.w3.org/2000/svg" xmlns:xlink="http://www.w3.org/1999/xlink" xml:space="preserve" xmlns:serif="http://www.serif.com/" style="fill-rule:evenodd;clip-rule:evenodd;stroke-linejoin:round;stroke-miterlimit:2;"><path id="iris" d="M155.81,179.927c-0.174,-2.395 0.12,-4.294 -0.596,-5.665c-7.205,-13.8 -14.576,-27.513 -21.9,-41.251c-6.083,-3.418 -5.861,-11.159 -10.876,-15.553c-4.871,-4.269 -8.871,-9.544 -13.165,-14.456c-1.216,-1.391 -2.081,-3.083 -3.171,-4.592c-5.766,-7.984 -14.72,-10.678 -23.44,-12.99c-6.487,-1.72 -12.383,1.903 -16.035,7.109c-3.942,5.618 -5.865,12.431 -6.958,19.255c-1.126,7.031 0.642,13.808 4.507,19.525c5.151,7.617 10.994,14.796 16.903,21.859c3.653,4.367 7.662,8.256 10.592,13.368c3.718,6.483 8.961,12.077 13.377,18.176c3.532,4.879 2.221,10.248 -3.025,12.609c-0.717,0.323 -2.292,-0.295 -2.962,-0.976c-7.892,-8.025 -16.493,-15.411 -21.795,-25.712c-1.703,-3.308 -4.289,-6.384 -7.095,-8.86c-7.81,-6.892 -13.281,-15.611 -19.189,-23.947c-3.903,-5.507 -5.928,-11.776 -6.359,-18.861c-0.657,-10.807 2.799,-20.269 7.204,-29.662c0.485,-1.035 0.776,-2.421 1.606,-2.992c7.603,-5.232 14.851,-11.398 23.706,-14.091c3.415,-1.039 8.007,1.49 11.98,2.671c4.373,1.299 8.726,2.735 12.953,4.444c5.454,2.206 9.438,6.434 13.325,10.656c2.082,2.261 3.544,5.174 5.843,7.14c7.932,6.783 13.925,15.196 19.159,23.95c9.531,15.94 18.392,32.29 27.144,48.677c2.702,5.058 7.061,10.259 3.184,16.786c-0.074,0.125 0.76,0.634 0.828,1.024c1.329,7.613 -1.822,11.562 -9.018,9.941c-6.524,-1.469 -12.482,-1.347 -19.109,-0.187c-6.694,1.172 -13.39,2.541 -19.453,5.049c-9.281,3.84 -19.139,6.934 -26.656,14.386c-2.179,2.16 -5.72,2.873 -8.352,4.666c-3.517,2.396 -6.926,5.012 -10.074,7.872c-4.342,3.945 -7.393,9.429 -14.224,10.126c-1.82,0.186 -3.752,2.015 -5.104,3.554c-5.364,6.103 -11.067,12.019 -15.584,18.72c-3.92,5.815 -6.254,12.675 -9.565,18.928c-4.4,8.307 -9.512,16.265 -13.478,24.765c-3.07,6.583 -5.249,13.673 -6.945,20.748c-0.468,1.951 1.365,4.886 4.428,6.371c5.367,2.602 11.153,2.922 16.741,4.243c5.138,1.215 16.447,-0.337 21.527,-2.142c6.235,-2.215 12.95,-3.071 18.693,-6.682c3.715,-2.336 7.342,-4.841 11.2,-6.915c4.618,-2.482 9.289,-5.011 14.208,-6.753c7.678,-2.718 13.386,-8.282 19.939,-12.629c1.901,-1.262 3.965,-2.306 6.03,-3.29c12.129,-5.779 23.28,-13.152 34.45,-20.548c1.482,-0.981 2.011,-1.449 2.005,-2.935c-0.014,-2.959 -0.042,-5.919 0.003,-8.878c0.108,-7.078 2.403,-9.614 9.472,-10.58c0.687,-0.094 1.375,-0.235 2.043,-0.424c5.781,-1.634 5.738,-1.451 9.25,3.285c3.403,4.589 7.203,8.888 10.928,13.23c0.536,0.624 1.27,2.676 2.51,0.659c0.377,-0.613 0.134,-1.746 -0.093,-2.567c-0.61,-2.202 -0.996,-4.586 -2.143,-6.493c-2.127,-3.535 0.645,-5.872 2.469,-6.926c1.787,-1.032 5.438,-0.71 7.179,0.54c2.035,1.462 3.463,4.415 4.153,6.99c2.39,8.915 4.336,17.949 6.477,26.931c0.264,1.11 0.987,2.185 0.979,3.272c-0.08,10.664 0.772,21.368 -1.413,31.948c-1.006,4.868 -8.169,11.305 -13.972,12.333c-3.612,0.639 -11.472,-4.368 -13.197,-8.61c-0.602,-1.479 -0.674,-3.177 -0.967,-4.779c-0.503,-2.753 -1.141,-5.494 -1.431,-8.27c-0.2,-1.916 -0.345,-4.027 0.242,-5.799c1.788,-5.396 1.808,-10.579 -0.044,-16.002c-0.754,-2.206 -0.075,-4.867 -0.281,-7.302c-0.285,-3.349 -1.246,-3.787 -4.978,-2.58c-7.194,2.326 -7.241,2.484 -5.512,9.681c0.335,1.393 0.152,2.917 0.156,4.38c0.014,5.426 0.113,10.855 -0.021,16.278c-0.183,7.413 0.703,14.58 2.866,21.748c2.185,7.247 2.237,15.021 5.915,21.995c1.929,3.66 2.571,7.923 7.226,9.509c1.048,0.357 1.924,1.561 2.617,2.557c4.644,6.671 11.588,6.028 18.337,5.69c1.474,-0.073 3.23,-0.945 4.28,-2.014c7.371,-7.503 13.407,-15.764 13.53,-26.915c0.076,-6.905 0.492,-13.852 -0.085,-20.71c-1.205,-14.316 -0.704,-29.16 -6.165,-42.55c-3.595,-8.816 -3.904,-18.434 -8.358,-26.887c-1.017,-1.93 -0.524,-4.616 1.805,-6.544c1.968,-1.629 3.346,-1.778 5.715,-0.768c1.63,0.694 4.118,0.262 5.906,-0.455c7.07,-2.836 12.265,-0.928 16.017,6.031c3.463,6.423 3.652,13.756 5.939,20.483c3.889,11.442 5.346,23.838 13.263,33.724c6.507,8.127 12.694,16.515 19.364,24.501c3.953,4.734 9.237,6.812 15.69,6.809c7.454,-0.003 14.739,1.585 21.447,5.255c8.482,4.642 17.695,7.857 25.153,14.496c2.54,2.261 6.505,3.233 9.747,4.938c2.342,1.231 6.534,-0.118 9.503,-1.309c2.481,-0.994 6.208,-1.555 5.805,-6.03c-0.12,-1.333 1.369,-2.82 2.145,-4.222c5.633,-10.172 6.508,-20.908 3.403,-31.95c-3.356,-11.937 -9.481,-22.563 -17.345,-31.977c-5.642,-6.754 -12.348,-12.626 -18.66,-18.81c-0.956,-0.937 -2.272,-1.793 -3.553,-2.065c-6.511,-1.381 -10.478,-6.209 -14.91,-10.504c-8.324,-8.065 -17.456,-14.949 -27.692,-20.592c-6.875,-3.79 -14.263,-3.875 -21.478,-5.328c-3.297,-0.663 -6.782,-0.894 -10.133,-0.651c-3.189,0.232 -6.284,1.576 -9.477,2.004c-5.505,0.736 -10.504,-2.992 -11.3,-7.3c-0.733,-3.964 2.078,-5.983 4.313,-5.723c6.482,0.755 11.936,-2.736 18.026,-3.338c1.868,-0.185 4.154,-1.566 5.258,-3.109c4.506,-6.295 10.476,-8.141 17.846,-7.151c6.907,0.927 14.08,-1.633 20.84,1.515c11.1,-3.754 23.482,1.439 34.231,-4.9c0.958,-0.564 2.155,-0.86 3.275,-0.992c6.407,-0.751 9.728,-4.241 10.303,-10.538c0.835,-9.14 -3.214,-18.768 -14.01,-23.682c-2.712,-1.235 -4.487,-1.397 -7.16,-0.274c-15.876,6.666 -31.876,6.815 -47.852,0.219c-0.421,-0.174 -0.717,-0.99 -1.054,-0.978c-8.188,0.273 -14.967,-4.926 -22.646,-5.878c-3.278,-0.406 -7.404,2.345 -10.459,4.594c-6.219,4.578 -10.151,11.194 -13.652,17.948c-4.879,9.41 -4.996,7.921 -15.826,8.733c-7.856,0.589 -8.433,-3.618 -10.121,-8.061c-0.604,-1.591 0.775,-3.827 0.61,-5.713c-0.605,-6.943 0.562,-13.823 -1.04,-20.934c-1.302,-5.777 0.484,-12.326 1.308,-18.478c0.549,-4.102 2.51,-8.089 2.617,-12.159c0.235,-9.049 2.823,-17.342 5.908,-25.717c1.825,-4.955 2.775,-10.447 2.972,-15.741c0.363,-9.732 2.948,-19.016 4.432,-28.515c1.222,-7.821 1.635,-15.856 1.48,-23.778c-0.138,-7.075 -2.978,-13.462 -9.383,-17.316c-2.358,-1.418 -5.638,-2.961 -7.982,-2.377c-4.107,1.023 -8.828,1.475 -11.763,5.479c-3.209,4.376 -6.629,8.598 -9.901,12.929c-0.974,1.289 -1.836,2.677 -2.619,4.092c-3.264,5.906 -9.648,7.938 -16.145,5.382c-3.61,-1.421 -7.35,-2.601 -11.128,-3.478c-3.821,-0.887 -6.256,1.01 -7.933,4.539c-4.95,10.416 -6.363,20.914 -1.372,31.705c2.326,5.029 4.792,9.91 8.187,14.427c2.08,2.767 2.38,6.843 3.606,10.287c1.912,5.37 3.264,11.083 6.049,15.968c5.045,8.852 6.955,18.467 8.778,28.213c0.096,0.513 0.827,0.906 1.262,1.356c0.552,-0.58 1.618,-1.204 1.572,-1.733c-0.343,-4.001 -0.048,-8.375 -1.641,-11.861c-1.565,-3.426 -0.826,-6.596 -1.235,-9.857c-0.56,-4.474 0.147,-8.867 -1.203,-13.526c-2.236,-7.715 0.265,-16.063 3.277,-22.849c2.692,-6.064 9.314,-10.566 14.7,-15.175c2.622,-2.244 9.036,-0.299 10.895,2.867c3.532,6.014 6.092,12.482 6.32,19.551c0.223,6.899 -0.282,13.832 0.178,20.707c0.257,3.833 1.134,7.464 0.02,11.404c-0.677,2.392 -1.389,4.633 -3.824,3.998c-1.968,-0.513 -4.854,-2.637 -4.983,-4.236c-0.813,-10.12 -5.263,-19.657 -4.666,-29.959c0.145,-2.508 0.202,-5.14 -3.131,-5.525c-3.081,-0.356 -3.587,1.674 -4.441,4.328c-1.521,4.722 -1.719,9.039 -0.314,13.815c0.864,2.938 1.41,6.721 0.282,9.343c-2.627,6.102 0.056,11.357 0.956,17.02c0.795,5.001 1.284,10.304 0.422,15.212c-0.45,2.558 -3.768,5.202 -6.426,6.591c-2.04,1.066 -2.456,1.007 -1.462,3.309c1.813,4.196 3.583,8.423 0.937,13.315c-1.727,3.193 -4.057,2.857 -6.643,2.846c-2.665,-0.011 -3.332,-1.556 -3.988,-4.055c-1.562,-5.95 -3.77,-11.735 -5.798,-17.557c-3.081,-8.846 -5.099,-17.992 -8.713,-26.727c-5.408,-13.068 -10.379,-26.316 -17.067,-38.801c-5.508,-10.282 -8.524,-21.181 -6.596,-32.687c1.506,-8.987 1.766,-18.658 8.695,-25.959c2.775,-2.923 5.131,-6.057 9.671,-6.823c4.269,-0.721 7.51,1.528 11.157,2.573c3.278,0.939 6.738,3.755 9.54,3.135c2.803,-0.621 4.96,-4.41 7.278,-6.924c4.757,-5.157 9.4,-10.42 14.154,-15.58c2.342,-2.541 5.238,-3.755 8.801,-3.821c2.271,-0.042 4.533,-0.873 6.787,-1.401c8.045,-1.885 18.048,2.821 22.225,10.394c0.895,1.623 1.976,3.167 3.135,4.617c3.168,3.96 5.098,8.194 5.017,13.499c-0.182,11.909 -1.593,23.575 -4.373,35.189c-1.748,7.302 -1.254,15.184 -3.338,22.349c-2.194,7.542 -2.654,15.365 -5.367,22.887c-2.888,8.005 -3.001,16.971 -4.82,25.41c-2.871,13.316 -0.69,26.744 -1.406,40.097c-0.079,1.475 -0.101,2.967 0.033,4.434c0.054,0.585 0.605,1.125 0.929,1.685c0.663,-0.469 1.66,-0.792 1.936,-1.429c3.47,-7.98 9.045,-14.346 15.149,-20.375c5.299,-5.234 11.345,-7.846 18.98,-7.927c10.781,-0.116 20.958,2.177 31.149,5.291c5.745,1.755 12.029,4.145 17.653,3.34c8.529,-1.221 17.944,0.703 25.527,-6.254c3.293,-3.02 8.181,-0.168 11.786,1.889c6.365,3.631 12.596,7.681 16.034,14.509c3.127,6.209 7.395,12.142 4.456,19.929c-1.938,5.134 -2.789,10.67 -4.589,15.865c-2.519,7.269 -9.637,9.196 -15.688,10.389c-10.827,2.135 -21.538,5.807 -32.887,4.818c-1.723,-0.15 -3.587,1.374 -5.315,1.237c-4.667,-0.37 -9.3,-1.19 -13.937,-1.898c-1.126,-0.171 -2.227,-0.896 -3.316,-0.848c-3.02,0.134 -6.477,-1.23 -8.705,2.155c2.647,0.743 5.279,1.545 7.945,2.216c7.462,1.879 14.147,5.435 20.31,9.876c4.629,3.337 9.189,6.896 13.211,10.924c7.757,7.767 18.021,12.089 26.002,19.42c6.684,6.139 13.356,12.403 19.19,19.322c5.48,6.499 11.036,13.171 13.261,21.835c1.994,7.769 5.058,15.315 6.467,23.172c1.801,10.038 -1.145,19.686 -5.255,28.799c-3.242,7.186 -6.062,14.694 -12.445,20.039c-2.676,2.24 -5.356,3.534 -8.929,3.598c-3.253,0.058 -6.706,0.699 -9.779,0.904c-4.95,0.332 -10.491,-1.36 -14.538,-5.458c-8.503,-8.612 -18.692,-14.602 -30.158,-18.249c-5.488,-1.745 -11.239,-2.665 -16.877,-3.929c-4.519,-1.012 -9.117,-1.747 -13.539,-3.073c-1.909,-0.571 -4.169,-1.943 -5.064,-3.602c-5.002,-9.276 -13.432,-15.858 -18.962,-24.685c-5.51,-8.795 -11.551,-17.267 -12.395,-28.201c-0.315,-4.083 -1.68,-8.126 -2.894,-12.088c-1.807,-5.893 -3.872,-11.707 -5.901,-17.53c-0.448,-1.283 -1.09,-2.541 -1.881,-3.639c-0.265,-0.368 -1.477,-0.49 -1.884,-0.202c-0.443,0.314 -0.775,1.34 -0.603,1.88c3.049,9.583 6.177,19.141 9.304,28.699c0.282,0.864 0.942,1.687 0.968,2.542c0.546,18.539 1.681,37.095 1.236,55.613c-0.214,8.919 -3.177,17.831 -10.271,24.507c-4.637,4.364 -9.026,8.991 -13.547,13.478c-0.673,0.667 -1.476,1.747 -2.201,1.734c-8.315,-0.157 -16.555,0.603 -24.791,-2.577c-6.186,-2.388 -8.09,-8.19 -12.514,-11.809c-0.656,-0.537 -0.697,-1.882 -1.371,-2.332c-6.092,-4.068 -6.051,-10.855 -7.489,-16.902c-2.035,-8.564 -3.753,-17.205 -5.529,-25.829c-0.335,-1.629 -0.413,-3.333 -0.422,-5.003c-0.043,-7.645 -0.013,-15.291 -0.024,-22.937c-0.003,-1.712 0.233,-3.495 -0.156,-5.122c-1.465,-6.122 -2.502,-6.016 -7.699,-2.618c-6.311,4.127 -11.946,9.02 -19.645,11.537c-8.109,2.651 -15.802,7.852 -22.386,13.455c-4.527,3.852 -9.715,5.78 -14.661,7.756c-7.235,2.892 -13.596,6.903 -19.638,11.448c-3.924,2.953 -8.163,4.199 -12.711,5.145c-1.351,0.281 -2.879,0.359 -3.984,1.065c-5.061,3.236 -10.588,3.904 -16.375,3.356c-5.761,-0.544 -11.428,0.937 -17.294,0.17c-8.402,-1.099 -16.41,-3.026 -23.496,-7.644c-3.623,-2.361 -5.407,-6.468 -4.638,-10.691c1.616,-8.867 3.781,-17.636 5.866,-26.411c0.359,-1.51 1.075,-3.355 2.239,-4.184c6.535,-4.652 7.419,-12.889 12.262,-18.753c4.581,-5.546 7.513,-12.559 10.636,-19.179c6.584,-13.955 16.68,-24.447 29.639,-32.676c7.909,-5.022 14.928,-11.435 22.787,-16.548c11.007,-7.161 22.098,-14.333 33.781,-20.264c7.504,-3.81 16.064,-5.771 24.624,-6.553c5.058,-0.463 9.369,-2.465 13.454,-5.973Zm45.879,108.777c-0.493,-1.268 -1.168,-2.5 -1.43,-3.815c-0.268,-1.343 0.334,-3.402 -2.007,-2.712c-0.879,0.259 -2.182,0.817 -1.529,3.431c1.537,6.149 1.573,12.699 1.959,19.102c0.25,4.157 0.016,8.342 0.082,12.513c0.01,0.591 0.497,1.175 0.763,1.762c0.347,-0.347 0.729,-0.666 1.035,-1.046c0.885,-1.099 2.535,-2.263 2.48,-3.329c-0.418,-8.142 1.651,-16.438 -1.353,-25.906Zm-26.64,-19.24c0,1.427 -0.173,2.889 0.108,4.258c0.083,0.404 1.451,0.544 2.23,0.805c0.385,-2.187 2.75,-4.919 -2.338,-5.063Zm119.877,27.38c2.452,1.218 4.064,2.616 5.892,3.619c5.354,2.939 6.866,2.301 8.918,-3.291c1.851,-5.044 1.419,-9.327 -3.007,-13.099c-2.484,-2.118 -4.29,-5.047 -6.325,-7.67c-2.525,-3.255 -1.16,-5.91 1.608,-8.051c2.707,-2.093 5.244,-1.62 7.579,0.908c0.926,1.002 2.318,1.554 3.395,2.436c6.068,4.971 11.073,10.242 10.186,19.219c-0.878,8.885 -2.513,17.166 -9.496,23.428c-3.864,3.466 -7.876,4.128 -12.864,1.833c-10.924,-5.029 -20.601,-11.536 -26.861,-21.989c-2.538,-4.238 -3.798,-9.238 -5.675,-13.876c-0.511,-1.265 -0.822,-2.947 -1.792,-3.631c-4.135,-2.91 -2.745,-7.139 -2.489,-10.771c0.282,-3.996 7.086,-6.301 10.315,-3.624c2.333,1.934 3.497,4.527 4.667,7.638c3.628,9.648 6.516,20.026 15.949,26.921Zm-199.794,1.48c-5.235,1.116 -9.428,3.852 -14.296,2.892c-1.727,-0.341 -4.134,-1.069 -4.718,-2.325c-0.632,-1.358 -0.113,-4.132 0.973,-5.258c4.737,-4.911 9.12,-10.13 16.516,-11.892c2.898,-0.691 5.92,-4.371 7.251,-7.407c2.799,-6.384 4.819,-13.027 1.849,-20.339c-1.415,-3.483 -2.563,-5.591 -6.624,-6.108c-5.891,-0.749 -9.517,-6.344 -6.324,-9.648c2.507,-2.595 7.199,-5.246 10.292,-4.644c5.937,1.156 12.3,2.522 16.553,8.273c3.151,4.262 5.698,7.317 4.078,13.664c-1.994,7.814 -4.918,15.328 -6.986,23.104c-2.572,9.673 -6.373,12.492 -18.564,19.688Z"/></svg>