<?xml version="1.0" encoding="UTF-8" standalone="no"?><!DOCTYPE svg PUBLIC "-//W3C//DTD SVG 1.1//EN" "http://www.w3.org/Graphics/SVG/1.1/DTD/svg11.dtd"><svg width="100%" height="100%" viewBox="0 0 1109 521" version="1.1" xmlns="http://www.w3.org/2000/svg" xmlns:xlink="http://www.w3.org/1999/xlink" xml:space="preserve" xmlns:serif="http://www.serif.com/" style="fill-rule:evenodd;clip-rule:evenodd;stroke-linejoin:round;stroke-miterlimit:2;"><rect id="logo-color-main" x="0" y="0.444" width="1107.08" height="518.75" style="fill:none;"/><g id="logo-color-main1" serif:id="logo-color-main"><path d="M229.406,265.166c7.104,-3.445 14.269,-6.768 21.491,-9.967l-11.177,28.188c-2.223,0.953 -4.441,1.917 -6.654,2.892l-3.66,-21.113Zm48.201,-21.136c15.133,-5.959 30.481,-11.388 46.001,-16.278l-4.277,27.009c-18.059,5.234 -35.932,11.281 -53.559,18.044l11.835,-28.775Zm83.386,-26.925c10.782,-2.751 21.629,-5.245 32.529,-7.48l-4.645,29.337c-10.821,1.768 -21.604,3.859 -32.334,6.252l4.45,-28.109Zm145.597,-20.8c10.477,0.045 20.902,0.863 31.077,3.094l-5.745,36.281c-2.95,-0.196 -5.905,-0.539 -8.816,-0.859c-7.436,-0.818 -14.875,-1.45 -22.314,-1.902l5.798,-36.614Zm-41.368,35.796c-13.327,0.187 -26.634,0.921 -39.902,2.166l0.239,-1.505c0.618,-2.258 4.562,-16.19 11.658,-30.663c11.091,-1.55 22.216,-2.833 33.365,-3.846l-5.36,33.848Zm-325.934,103.161c-20.698,12.545 -40.88,26.114 -58.569,42.61c-0.495,0.462 -1.044,0.925 -1.628,1.363c0.065,-0.237 0.118,-0.478 0.156,-0.724l0.469,-2.96l-5.949,5.081l-0.719,-0.713l-0.228,-3.443l-0.157,0.992l-3.768,0.87c-0.131,-1.293 0.356,-2.678 1.145,-3.99c1.158,0.248 2.123,0.24 2.653,0.205l-0.216,-3.257c0.215,-0.215 0.433,-0.423 0.649,-0.621c20.047,-18.327 41.258,-35.315 63.441,-50.916l2.721,15.503Zm31.983,-38.302c3.256,-1.996 6.53,-3.964 9.821,-5.904l-7.584,19.017l-2.237,-13.113Zm180.858,-189.159c-0.05,5.862 -2.098,12.788 -1.311,18.194c0.787,5.406 4.833,9.284 14.997,7.953c1.62,-0.212 3.504,-0.518 3.619,0.35c0.115,0.867 -0.233,2.63 -4.46,3.415c-1.638,0.304 -5.448,2.218 -7.363,4.079c-1.914,1.86 -2.46,3.35 -2.925,4.725l-6.315,18.715c-0.232,0.687 -0.664,1.581 -1.992,2.473c-1.649,1.108 -3.156,1.198 -3.709,0.823c-1.325,-0.9 -0.423,-3.133 0.11,-5.102c1.494,-5.523 1.56,-18.749 -11.199,-19.314c-1.359,-0.06 -3.3,0.34 -4.087,-0.139c-1.944,-1.182 0.527,-2.481 2.872,-3.654c5.258,-2.631 8.815,-6.842 10.484,-9.776c4.133,-7.264 4.739,-12.985 5.719,-18.819c0.112,-0.667 0.269,-1.4 1.218,-2.378c0.949,-0.979 2.992,-2.217 3.871,-2.196c0.452,0.011 0.473,0.336 0.471,0.651Zm434.508,-102.984c-0.05,5.863 -2.098,12.789 -1.311,18.195c0.788,5.405 4.834,9.283 14.997,7.953c1.62,-0.212 3.504,-0.518 3.62,0.349c0.115,0.868 -0.234,2.631 -4.461,3.416c-1.638,0.304 -5.448,2.218 -7.362,4.078c-1.915,1.861 -2.461,3.35 -2.925,4.726l-6.316,18.715c-0.232,0.686 -0.664,1.581 -1.992,2.473c-1.648,1.108 -3.156,1.198 -3.709,0.823c-1.324,-0.9 -0.423,-3.134 0.11,-5.103c1.495,-5.522 1.561,-18.748 -11.199,-19.313c-1.359,-0.061 -3.3,0.339 -4.087,-0.139c-1.944,-1.182 0.527,-2.482 2.872,-3.655c5.258,-2.63 8.815,-6.841 10.485,-9.775c4.133,-7.264 4.739,-12.985 5.719,-18.819c0.112,-0.667 0.269,-1.4 1.217,-2.379c0.949,-0.978 2.992,-2.217 3.871,-2.195c0.453,0.011 0.474,0.336 0.471,0.65Zm-199.836,310.285c-37.079,-6.003 -74.965,-3.096 -112.374,0.285c-76.053,6.873 -153.15,15.951 -223.562,45.505c-45.598,19.139 -87.258,46.412 -128.275,74.035c-7.075,4.765 -15.201,9.772 -23.543,7.993c-8.345,-1.779 -14.041,-10.337 -14.582,-18.853c-0.541,-8.516 3.139,-16.796 8.008,-23.803c14.525,-20.899 38.818,-32.448 62.312,-42.234c139.494,-58.105 293.681,-86.35 443.166,-64.234c5.771,0.854 12.554,2.585 14.514,8.08c1.97,5.524 -2.689,11.601 -8.255,13.45c-5.566,1.849 -11.62,0.713 -17.409,-0.224Zm-100.786,35.421c1.572,-0.499 3.277,-0.986 4.84,-0.458c3.037,1.026 3.62,5.437 1.865,8.12c-1.756,2.683 -4.916,4.026 -7.896,5.21c-26.055,10.361 -52.789,20.093 -75.525,36.503c-9.184,6.629 -18.495,17.542 -14.189,28.017c1.92,4.672 -3.747,9.392 -8.795,9.211c-5.048,-0.181 -9.513,-3.156 -14.32,-4.706c-5.438,-1.754 -11.274,-1.667 -16.987,-1.562c-39.914,0.732 -81.154,1.754 -117.413,18.456c-8.12,3.74 -16.341,8.341 -25.279,8.16c-3.73,-0.075 -8.3,-2.034 -8.227,-5.764c0.059,-3.004 3.115,-4.932 5.794,-6.291l73.011,-37.059c5.368,-2.724 11.034,-5.726 14.005,-10.96c2.97,-5.235 1.65,-13.327 -4.039,-15.29c-4.632,-1.598 -2.444,-9.523 2.3,-10.749c4.744,-1.226 9.485,1.526 13.819,3.812c27.187,14.34 60.164,13.114 89.957,5.557c29.794,-7.557 57.778,-20.923 87.079,-30.207Zm-104.927,73.208c3.179,-14.135 12.708,-26.715 25.454,-33.604c-30.479,10.399 -63.965,6.779 -95.343,-0.467c0.051,6.889 -3.71,13.365 -8.71,18.105c-5,4.74 -11.177,8.014 -17.27,11.229l-19.235,10.149c37.603,-8.835 76.837,-10.68 115.104,-5.412Zm216.33,-59.928c10.556,0.459 17.839,12.237 16.879,22.759c-0.959,10.523 -7.858,19.534 -15.374,26.961c-22.316,22.053 -51.689,35.356 -80.967,46.633c-135.899,52.345 -284.868,70.355 -429.326,51.904c-3.507,-0.448 -7.36,-1.103 -9.603,-3.835c-2.244,-2.733 -1.03,-8.081 2.505,-8.128l136.793,-1.837c11.82,-0.159 23.647,-0.318 35.441,-1.112c62.396,-4.203 122.086,-25.986 180.788,-47.551c30.922,-11.36 62.027,-22.806 90.494,-39.385c18.601,-10.834 35.899,-23.761 52.728,-37.184c5.786,-4.616 12.247,-9.546 19.642,-9.225Z" style="fill:#ec87a5;"/><path d="M149.195,353.147l-17.552,-100.011c-5.159,-19.292 -14.607,-17.11 -14.607,-17.11l0.511,-3.229l48.851,-11.281l-0.512,3.23c0,-0 -13.279,2.547 -9.818,22.75l14.854,87.058l26.877,-67.396l-5.093,-28.123c-4.929,-19.344 -14.376,-17.163 -14.376,-17.163l0.511,-3.229l48.62,-11.228l-0.511,3.23c-0,-0 -13.28,2.548 -9.819,22.75l15.085,87.006l29.197,-73.637c15.242,-38.782 4.479,-45.112 -10.96,-41.547l0.281,-3.176l56.454,-13.036l-0.511,3.229c0,0 -16.318,3.509 -30.332,37.34l-37.3,90.683c-10.091,3.153 -20.13,6.47 -30.111,9.945l-8.784,-49.845l-25.903,62.64c-7.38,2.877 -14.723,5.837 -22.025,8.879c-1.008,0.42 -2.017,0.843 -3.027,1.271Zm168.985,-53.914c1.05,-3.201 1.942,-6.832 2.594,-10.95l10.95,-69.164c4.602,-29.064 -11.587,-26.363 -11.587,-26.363l0.468,-2.96c14.142,-3.784 25.415,-7.684 38.71,-15.94l1.631,0.92l-17.13,108.186c-0.701,4.431 -0.92,8.124 -0.786,11.2c-8.304,1.572 -16.588,3.263 -24.85,5.071Zm68.136,-12.133c1.682,-4.07 3.111,-8.978 4.046,-14.886l10.951,-69.164c4.602,-29.065 -11.588,-26.364 -11.588,-26.364l0.469,-2.96c14.099,-3.515 25.415,-7.684 38.71,-15.939l1.63,0.92l-6.604,41.713c7.771,-16.833 25.252,-47.316 55.207,-54.233c23.273,-5.374 27.211,9.014 22.481,38.886l-10.098,63.781c-4.602,29.065 11.587,26.364 11.587,26.364l-0.468,2.96l-6.236,1.44c-12.939,-0.039 -25.881,0.257 -38.812,0.875c4.315,-5.036 8.812,-13.218 10.886,-26.318l10.099,-63.781c3.409,-21.529 -0.545,-30.21 -12.988,-27.336c-30.416,7.023 -46.558,68.311 -46.558,68.311l-5.625,35.524c-1.208,7.632 -0.983,13.073 0.006,16.949c-9.045,0.936 -18.078,2.024 -27.095,3.258Zm301.224,-51.619l-30.746,7.1l0.469,-2.961c-0,0 16.531,-4.854 21.133,-33.919l21.305,-134.56c4.602,-29.065 -11.588,-26.363 -11.588,-26.363l0.469,-2.961c17.282,-3.99 35.184,-20.31 40.831,-33.541l2.534,-0.586l-30.509,192.69c-2.095,13.236 0.12,19.884 3.156,23.199c-0.618,0.38 -1.23,0.761 -1.837,1.142c-5.699,3.583 -10.769,7.172 -15.217,10.76Zm56.846,-32.084c1.488,-3.842 2.747,-8.389 3.598,-13.766l10.951,-69.163c4.602,-29.065 -11.588,-26.364 -11.588,-26.364l0.469,-2.96c14.141,-3.784 25.415,-7.684 38.71,-15.94l1.63,0.92l-17.129,108.186c-0.566,3.573 -0.817,6.665 -0.823,9.342c-1.189,0.395 -2.38,0.798 -3.572,1.21c-7.506,2.591 -14.921,5.436 -22.246,8.535Zm71.146,-20.659c0.811,-2.752 1.507,-5.801 2.041,-9.176l10.951,-69.164c4.602,-29.065 -11.588,-26.363 -11.588,-26.363l0.469,-2.96c14.099,-3.515 25.415,-7.684 38.71,-15.94l1.63,0.92l-6.604,41.713c7.771,-16.832 25.251,-47.315 55.207,-54.233c23.273,-5.374 27.211,9.014 22.481,38.886l-10.099,63.782c-4.602,29.065 11.588,26.363 11.588,26.363l-0.468,2.96l-55.764,12.877l0.469,-2.96c0,0 16.531,-4.854 21.133,-33.919l10.098,-63.782c3.409,-21.529 -0.544,-30.21 -12.987,-27.336c-30.417,7.024 -46.559,68.311 -46.559,68.311l-5.624,35.524c-0.934,5.895 -1.012,10.484 -0.543,14.053c-2.629,-0.427 -5.459,-0.646 -8.494,-0.646c-5.002,-0 -10.352,0.361 -16.047,1.09Zm-777.031,170.728l23.18,-146.401l-9.447,2.181c-30.417,7.024 -50.08,47.086 -50.08,47.086l-2.134,-0.544l25.898,-61.207l2.176,0.275c-0,0 -3.949,12.32 4.807,10.298l83.876,-19.368c8.756,-2.022 8.557,-13.385 8.557,-13.385l2.432,-1.339l7.745,53.438l-2.705,1.662c0,-0 -7.757,-33.73 -38.174,-26.706l-9.678,2.234l-23.18,146.401c-4.602,29.065 11.358,26.417 11.358,26.417l-0.469,2.96l-55.533,12.824l0.469,-2.96c-0,-0 16.3,-4.801 20.902,-33.866Zm980.525,-331.951c2.996,-0.691 5.949,-1.114 8.586,-0.945c8.466,-2.992 26.405,-9.727 39.58,-20.03l-0.278,17.177l-25.808,5.96c12.062,6.548 18.006,22.288 15.023,41.127c-4.474,28.257 -27.921,58.562 -54.189,64.628c-27.421,6.332 -37.27,9.644 -38.463,17.179c-0.937,5.921 4.713,6.69 13.615,5.153l30.391,-5.462c31.27,-5.406 41.497,5.715 37.79,29.128c-4.687,29.603 -27.223,48.549 -62.018,56.584c-17.512,4.044 -43.184,6.342 -46.185,-13.967l27.502,-27.87l1.169,1.026c0,-0 -4.206,6.935 -5.399,14.47c-3.068,19.377 14.249,17.971 29.457,14.459c28.342,-6.545 41.44,-19.163 43.528,-32.35c1.619,-10.226 -4.015,-16.704 -25.923,-12.941l-29.93,5.356c-22.139,3.815 -34.14,-1.71 -31.498,-18.396c2.344,-14.801 14.102,-27.369 34.908,-33.988c-12.795,-6.121 -19.345,-22.239 -16.235,-41.885c4.432,-27.988 27.878,-58.293 54.377,-64.413Zm14.31,56.849c1.395,-20.027 -6.243,-51.711 -26.213,-44.766c-13.159,4.595 -18.787,26.118 -19.68,38.77c-1.438,20.296 6.2,51.98 26.169,45.035c13.16,-4.595 18.788,-26.118 19.724,-39.039Zm-429.007,81.954l22.221,57.355c9.684,25.766 23.8,23.544 23.8,23.544l-0.469,2.96l-56.685,13.09l0.469,-2.961c0,0 18.835,-5.386 8.92,-31.099l-17.173,-42.964l-18.96,20.194l-5.113,32.295c-4.602,29.065 11.588,26.363 11.588,26.363l-0.469,2.96l-55.763,12.877l0.468,-2.96c0,0 16.531,-4.854 21.133,-33.919l21.306,-134.56c4.601,-29.065 -11.588,-26.363 -11.588,-26.363l0.468,-2.961c17.282,-3.991 34.954,-20.257 40.831,-33.542l2.535,-0.585l-24.032,151.784l37.33,-39.475c29.079,-30.828 11.916,-31.791 11.916,-31.791l0.511,-3.229l48.159,-11.121l-0.511,3.229c-0,0 -22.239,10.062 -51.319,40.89l-9.573,9.989Z" style="fill:#461121;"/><path d="M954.156,343.572c-1.016,0.552 -2.036,1.09 -3.06,1.615c-8.048,4.127 -15.83,7.631 -23.346,10.513c-7.517,2.881 -14.626,5.217 -21.327,7.008c-6.701,1.791 -12.498,3.31 -17.39,4.556c-4.058,0.934 -7.702,1.946 -10.931,3.037c-3.23,1.09 -6.136,2.336 -8.719,3.737c-2.583,1.402 -5.027,3.115 -7.331,5.14c-2.304,2.025 -4.715,4.439 -7.234,7.242c-2.913,3.271 -6.961,7.904 -12.146,13.9c-5.184,5.996 -11.017,12.576 -17.498,19.741c-6.48,7.164 -13.371,14.445 -20.671,21.843c-7.301,7.397 -14.524,14.133 -21.669,20.207c-7.145,6.074 -14.013,11.019 -20.604,14.835c-6.591,3.816 -12.378,5.723 -17.362,5.723c-5.607,0 -9.854,-2.414 -12.74,-7.242c-2.887,-4.828 -3.671,-10.98 -2.353,-18.455c0.962,-5.451 2.901,-11.37 5.818,-17.755c2.917,-6.385 6.679,-12.927 11.286,-19.624c4.607,-6.697 10.007,-13.471 16.199,-20.324c6.192,-6.853 13.044,-13.472 20.555,-19.857c5.13,-4.361 9.756,-7.632 13.878,-9.812c4.123,-2.181 8.227,-3.816 12.312,-4.906c4.086,-1.09 8.351,-1.869 12.794,-2.336c4.443,-0.468 9.395,-1.168 14.855,-2.103c6.422,-1.09 11.312,-2.102 14.669,-3.037c3.358,-0.934 6.294,-2.57 8.808,-4.906c2.514,-2.336 5.196,-5.84 8.044,-10.512c2.849,-4.673 6.897,-11.292 12.146,-19.858c-3.472,2.025 -7.585,4.595 -12.34,7.71c-4.754,3.114 -9.643,6.112 -14.668,8.994c-5.025,2.881 -9.935,5.334 -14.73,7.359c-4.796,2.024 -8.985,3.037 -12.567,3.037c-3.582,-0 -6.564,-0.974 -8.947,-2.921c-2.382,-1.946 -3.34,-4.244 -2.873,-6.891c0.55,-3.115 2.425,-7.126 5.626,-12.031c3.201,-4.906 6.803,-9.657 10.806,-14.251c4.003,-4.594 8.006,-8.527 12.009,-11.798c4.003,-3.27 7.017,-4.905 9.041,-4.905c1.558,-0 2.818,0.584 3.78,1.752c0.962,1.168 1.766,2.569 2.412,4.205c0.646,1.635 1.194,3.387 1.643,5.256c0.449,1.869 0.926,3.582 1.43,5.14c1.594,-1.091 3.992,-2.765 7.193,-5.023c3.202,-2.258 6.788,-4.711 10.759,-7.359l12.442,-8.293c4.324,-2.882 8.483,-5.49 12.477,-7.826c3.994,-2.337 7.562,-4.244 10.704,-5.724c3.142,-1.48 5.492,-2.219 7.05,-2.219c2.18,-0 4.006,1.129 5.476,3.387c1.471,2.258 2.001,4.556 1.589,6.892c-0.495,2.803 -2.409,6.814 -5.743,12.031c-3.334,5.217 -7.119,10.785 -11.355,16.703c-4.237,5.919 -8.413,11.72 -12.531,17.405c-4.117,5.684 -7.128,10.396 -9.033,14.133c4.636,-1.557 9.88,-3.037 15.734,-4.438c5.854,-1.402 12.166,-3.193 18.936,-5.373c6.77,-2.181 13.968,-5.023 21.594,-8.527c4.616,-2.121 9.333,-4.656 14.152,-7.604c0.639,-0.929 1.322,-1.86 2.049,-2.792c4.731,-6.074 10.332,-11.564 16.804,-16.47c6.472,-4.906 13.246,-8.877 20.323,-11.914c7.076,-3.037 13.496,-4.556 19.259,-4.556c2.803,0 5.485,0.467 8.046,1.402c2.56,0.934 4.748,2.219 6.562,3.854c1.814,1.636 3.132,3.66 3.952,6.074c0.82,2.414 0.956,5.179 0.406,8.294c-0.631,3.582 -2.168,6.775 -4.609,9.578c-2.441,2.803 -5.443,5.256 -9.007,7.359c-3.563,2.102 -7.493,3.854 -11.789,5.256c-4.297,1.402 -8.552,2.57 -12.766,3.504c-4.214,0.935 -8.232,1.636 -12.052,2.103l-9.55,1.168c-0.495,2.803 0.069,4.906 1.691,6.308c1.622,1.401 3.754,2.336 6.397,2.803c2.643,0.467 5.483,0.701 8.52,0.701l7.826,-0c6.386,-0 13.245,-0.701 20.579,-2.103c7.333,-1.401 14.735,-3.192 22.206,-5.373c7.471,-2.18 14.658,-4.516 21.561,-7.008c6.902,-2.492 12.999,-4.828 18.289,-7.009c5.291,-2.18 9.539,-3.971 12.745,-5.373c3.207,-1.402 4.888,-2.102 5.043,-2.102c1.713,-0 2.74,0.584 3.079,1.752c0.339,1.168 0.385,2.453 0.138,3.854c-0.742,4.205 -3.622,8.177 -8.642,11.915c-5.02,3.738 -11.16,7.203 -18.42,10.396c-7.26,3.192 -15.283,6.074 -24.068,8.643c-8.785,2.57 -17.23,4.75 -25.333,6.542c-8.103,1.791 -15.507,3.153 -22.213,4.088c-6.706,0.934 -11.694,1.401 -14.965,1.401c-5.14,0 -10.224,-0.311 -15.254,-0.934c-5.029,-0.623 -9.475,-1.908 -13.337,-3.855c-3.862,-1.946 -6.762,-4.711 -8.7,-8.293c-0.998,-1.845 -1.605,-3.98 -1.819,-6.404Zm-118.743,36.307c-2.391,0.311 -5.132,0.623 -8.224,0.934c-3.092,0.312 -6.381,0.857 -9.867,1.636c-3.486,0.778 -7.079,1.946 -10.78,3.504c-3.701,1.557 -7.278,3.738 -10.731,6.541c-3.582,2.648 -7.129,5.763 -10.642,9.345c-3.513,3.582 -6.957,7.436 -10.333,11.564c-3.375,4.127 -6.59,8.449 -9.645,12.965c-3.054,4.517 -5.745,8.955 -8.071,13.316c-2.116,4.05 -3.925,7.904 -5.427,11.564c-1.502,3.66 -3.036,7.281 -4.602,10.863c5.625,-1.869 12.429,-5.568 20.412,-11.096c7.984,-5.529 16.159,-12.148 24.527,-19.858c8.368,-7.709 16.41,-16.002 24.128,-24.88c7.717,-8.877 14.135,-17.677 19.255,-26.398Zm157.406,-67.281c1.09,-0 2.877,-0.195 5.359,-0.584c2.483,-0.39 5.078,-0.974 7.785,-1.753c2.707,-0.778 5.13,-1.713 7.269,-2.803c2.139,-1.09 3.332,-2.336 3.579,-3.738c0.138,-0.778 -0.059,-1.207 -0.591,-1.285c-0.531,-0.077 -1.03,-0.116 -1.498,-0.116c-1.401,-0 -3.137,0.35 -5.208,1.051c-2.07,0.701 -4.129,1.557 -6.176,2.57c-2.048,1.012 -4.031,2.102 -5.95,3.27c-1.919,1.168 -3.442,2.297 -4.569,3.388Zm-154.86,-99.52c0.247,-1.402 -0.021,-2.531 -0.804,-3.388c-0.784,-0.856 -1.796,-1.518 -3.038,-1.986c-1.241,-0.467 -2.588,-0.778 -4.04,-0.934c-1.452,-0.156 -2.801,-0.234 -4.047,-0.234c-6.074,0 -13.332,0.974 -21.774,2.921c-8.442,1.946 -17.305,4.516 -26.59,7.709c-9.284,3.193 -18.443,6.775 -27.475,10.746c-9.033,3.972 -17.261,8.021 -24.686,12.148c-7.425,4.127 -13.498,8.099 -18.22,11.915c-4.723,3.815 -7.345,7.203 -7.866,10.162c-0.275,1.557 0.559,3.231 2.501,5.022c1.943,1.792 4.463,3.622 7.559,5.49c3.097,1.869 6.407,3.855 9.93,5.958c3.523,2.102 6.812,4.205 9.868,6.307c3.055,2.103 5.506,4.322 7.353,6.658c1.846,2.336 2.563,4.673 2.151,7.009c-0.604,3.426 -2.346,6.463 -5.227,9.111c-2.881,2.647 -6.545,5.1 -10.993,7.359c-4.447,2.258 -9.472,4.477 -15.074,6.658c-5.602,2.18 -11.44,4.594 -17.513,7.242c-11.653,5.139 -20.197,10.318 -25.634,15.535c-5.436,5.217 -8.221,9.968 -8.353,14.251c-0.132,4.283 2.138,7.748 6.811,10.395c4.672,2.648 11.447,3.972 20.325,3.972c10.279,-0 22.804,-2.142 37.577,-6.424c14.772,-4.283 31.474,-11.564 50.107,-21.843c0.861,-0.468 2.331,-0.195 4.411,0.817c2.08,1.013 3.812,2.453 5.195,4.322c1.384,1.869 1.849,4.088 1.396,6.658c-0.453,2.57 -2.938,5.179 -7.454,7.826c-19.036,11.681 -36.578,19.974 -52.628,24.88c-16.05,4.906 -30.305,7.359 -42.765,7.359c-9.656,0 -18.041,-1.246 -25.155,-3.738c-7.114,-2.492 -12.676,-5.84 -16.684,-10.045c-4.009,-4.205 -6.383,-9.072 -7.121,-14.601c-0.738,-5.529 0.395,-11.292 3.399,-17.288c3.004,-5.996 8.04,-12.031 15.107,-18.105c7.067,-6.074 16.362,-11.758 27.887,-17.054c2.711,-1.246 6.028,-2.608 9.948,-4.088c3.921,-1.48 7.725,-2.959 11.413,-4.439c3.687,-1.479 6.868,-2.959 9.543,-4.438c2.675,-1.48 4.108,-2.765 4.3,-3.855c0.138,-0.779 -0.735,-1.791 -2.618,-3.037c-1.883,-1.246 -4.269,-2.726 -7.16,-4.439c-2.891,-1.713 -6.013,-3.66 -9.366,-5.84c-3.354,-2.181 -6.407,-4.517 -9.16,-7.009c-2.754,-2.491 -4.934,-5.139 -6.543,-7.942c-1.608,-2.804 -2.151,-5.685 -1.629,-8.644c0.851,-4.828 4.093,-9.968 9.727,-15.419c5.633,-5.451 12.785,-10.902 21.456,-16.353c8.67,-5.451 18.436,-10.707 29.296,-15.769c10.86,-5.062 21.928,-9.539 33.205,-13.433c11.277,-3.893 22.378,-7.008 33.303,-9.344c10.925,-2.337 20.748,-3.505 29.469,-3.505c8.722,0 15.458,1.986 20.209,5.958c4.751,3.971 6.59,8.994 5.519,15.068c-0.988,5.607 -3.85,11.681 -8.586,18.222c-4.735,6.541 -10.211,13.082 -16.426,19.623c-6.215,6.542 -12.569,12.771 -19.064,18.69c-6.495,5.918 -11.917,11.057 -16.268,15.418c-3.747,3.582 -6.385,5.957 -7.915,7.125c-1.53,1.169 -3.151,1.753 -4.864,1.753c-2.648,-0 -4.824,-1.13 -6.528,-3.388c-1.705,-2.258 -2.323,-4.711 -1.856,-7.359c0.357,-2.024 1.309,-3.893 2.857,-5.606c1.814,-2.337 4.482,-5.101 8.004,-8.294c3.522,-3.193 7.403,-6.658 11.645,-10.396c4.241,-3.738 8.619,-7.592 13.135,-11.564c4.516,-3.971 8.661,-7.826 12.435,-11.564c3.774,-3.737 6.962,-7.242 9.563,-10.512c2.602,-3.271 4.108,-6.074 4.52,-8.41Zm-573.277,-36.484l-0.531,0.414c-1.905,1.467 -3.992,2.903 -6.259,4.308c-2.267,1.404 -4.484,2.683 -6.65,3.836c-2.165,1.152 -4.128,2.099 -5.888,2.84c-1.759,0.742 -3.119,1.206 -4.078,1.393c-2.879,0.561 -5.233,0.556 -7.065,-0.017c-1.831,-0.572 -3.361,-1.286 -4.59,-2.142c-1.229,-0.856 -2.282,-1.647 -3.159,-2.372c-0.878,-0.725 -1.796,-0.994 -2.756,-0.807c-1.726,0.337 -3.892,1.39 -6.496,3.159c-2.604,1.769 -5.277,3.684 -8.02,5.746c-2.743,2.062 -5.369,3.968 -7.876,5.718c-2.508,1.751 -4.53,2.775 -6.065,3.075c-1.279,0.249 -2.195,-0.037 -2.747,-0.859c-0.552,-0.822 -0.731,-1.849 -0.536,-3.082c0.097,-0.616 0.571,-1.655 1.421,-3.115c0.85,-1.461 1.96,-3.187 3.328,-5.18c-2.786,2.335 -5.642,4.618 -8.566,6.848c-2.925,2.23 -5.737,4.239 -8.437,6.027c-2.699,1.788 -5.199,3.287 -7.498,4.499c-2.299,1.212 -4.184,1.961 -5.655,2.248c-1.727,0.337 -3.165,0.318 -4.315,-0.055c-1.15,-0.373 -2.033,-0.965 -2.649,-1.774c-0.616,-0.809 -1.024,-1.759 -1.224,-2.849c-0.2,-1.089 -0.214,-2.182 -0.041,-3.278c0.346,-2.192 1.297,-4.585 2.853,-7.179c1.556,-2.594 3.475,-5.325 5.756,-8.193c2.282,-2.868 4.84,-5.823 7.676,-8.865c2.836,-3.043 5.701,-6.075 8.595,-9.095c-3.795,0.872 -7.67,1.96 -11.626,3.262c-3.956,1.303 -7.684,3.025 -11.184,5.168c-0.544,0.306 -1.075,0.625 -1.593,0.958c-0.517,0.333 -1.064,0.556 -1.639,0.668c-1.088,0.212 -2.041,0.066 -2.86,-0.438c-0.82,-0.504 -1.132,-1.373 -0.937,-2.606c0.183,-1.164 0.964,-2.279 2.341,-3.344c1.377,-1.065 3.086,-2.079 5.129,-3.042c2.043,-0.962 4.256,-1.825 6.639,-2.588c2.383,-0.764 4.707,-1.449 6.973,-2.057c2.265,-0.608 4.299,-1.121 6.101,-1.538c1.801,-0.418 3.118,-0.708 3.95,-0.87l2.254,-0.439c0.991,-0.194 2.153,-0.387 3.486,-0.58c2.467,-2.672 4.769,-5.279 6.906,-7.82c2.137,-2.541 3.911,-4.945 5.322,-7.212c0.663,-1.059 1.422,-2.136 2.277,-3.232c0.855,-1.096 1.858,-1.757 3.009,-1.981c1.28,-0.25 2.27,-0.044 2.972,0.616c0.702,0.659 0.955,1.606 0.761,2.839c-0.065,0.411 -0.437,1.097 -1.116,2.06c-0.679,0.962 -1.592,2.136 -2.741,3.522c-1.148,1.385 -2.492,2.925 -4.03,4.619c-1.538,1.694 -3.204,3.513 -4.999,5.456c1.322,-0.125 2.555,-0.182 3.701,-0.173c1.145,0.009 2.157,0.077 3.036,0.204c0.879,0.128 1.557,0.344 2.036,0.649c0.479,0.305 0.675,0.731 0.589,1.279c-0.141,0.891 -0.657,1.705 -1.548,2.443c-0.891,0.738 -1.889,1.364 -2.993,1.878c-1.104,0.514 -2.208,0.929 -3.311,1.244c-1.104,0.314 -1.975,0.534 -2.615,0.659c-1.151,0.224 -2.23,0.285 -3.237,0.183c-1.007,-0.103 -2.027,-0.219 -3.06,-0.35c-2.478,2.741 -4.959,5.498 -7.443,8.273c-2.483,2.775 -4.777,5.429 -6.882,7.964c-2.105,2.535 -3.948,4.886 -5.53,7.054c-1.582,2.167 -2.691,3.993 -3.329,5.478c-0.637,1.486 -0.765,2.589 -0.383,3.312c0.382,0.722 1.501,0.902 3.355,0.541c0.96,-0.187 2.472,-0.93 4.536,-2.229c2.065,-1.299 4.442,-2.908 7.132,-4.826c2.689,-1.919 5.518,-4.03 8.485,-6.335c2.967,-2.305 5.801,-4.55 8.502,-6.737c2.701,-2.186 5.143,-4.206 7.326,-6.059c2.183,-1.853 3.787,-3.278 4.812,-4.274c3.398,-4.248 6.876,-8.511 10.434,-12.79c3.558,-4.278 6.861,-8.126 9.911,-11.542c3.05,-3.416 5.712,-6.242 7.987,-8.478c2.274,-2.236 3.833,-3.47 4.675,-3.7l1.535,-0.3c0.384,-0.074 0.813,-0.141 1.287,-0.201c0.474,-0.059 0.89,-0.04 1.247,0.056c0.356,0.096 0.652,0.288 0.885,0.574c0.234,0.287 0.308,0.704 0.221,1.252c-0.27,1.712 -1.38,3.738 -3.33,6.076c-1.95,2.339 -4.174,4.748 -6.673,7.227c-2.499,2.479 -4.979,4.838 -7.44,7.077c-2.461,2.239 -4.338,4.115 -5.631,5.629c-3.642,4.229 -7.179,8.371 -10.608,12.425c-3.43,4.055 -6.519,8.508 -9.268,13.359c1.216,-0.635 2.744,-1.581 4.585,-2.836c1.841,-1.255 3.733,-2.537 5.675,-3.845c1.942,-1.308 3.785,-2.481 5.53,-3.518c1.744,-1.037 3.128,-1.655 4.151,-1.855c1.663,-0.324 3.003,-0.071 4.018,0.76c1.016,0.831 2.002,1.751 2.959,2.76c0.957,1.008 2.023,1.912 3.199,2.712c1.175,0.8 2.754,1.007 4.737,0.62c1.855,-0.362 4.017,-1.098 6.486,-2.211c2.469,-1.112 5.029,-2.407 7.681,-3.887c2.651,-1.48 5.233,-3.012 7.746,-4.597c1.992,-1.258 3.762,-2.398 5.309,-3.423c1.729,-2.476 3.717,-4.824 5.966,-7.041c2.643,-2.607 5.413,-4.84 8.31,-6.699c2.897,-1.86 5.529,-3.02 7.896,-3.482c1.151,-0.224 2.254,-0.24 3.308,-0.047c1.055,0.192 1.957,0.564 2.707,1.115c0.75,0.551 1.297,1.307 1.641,2.269c0.344,0.962 0.408,2.128 0.192,3.498c-0.249,1.576 -0.87,3.058 -1.864,4.447c-0.994,1.389 -2.22,2.673 -3.677,3.854c-1.457,1.18 -3.066,2.24 -4.826,3.181c-1.76,0.941 -3.504,1.779 -5.232,2.514c-1.728,0.735 -3.375,1.355 -4.943,1.86l-3.919,1.262c-0.194,1.233 0.044,2.083 0.714,2.55c0.67,0.466 1.549,0.694 2.636,0.681c1.086,-0.013 2.253,-0.141 3.501,-0.384l3.214,-0.627c2.622,-0.511 5.437,-1.358 8.444,-2.542c3.008,-1.184 6.042,-2.539 9.104,-4.066c3.061,-1.526 6.006,-3.096 8.833,-4.709c2.827,-1.614 5.324,-3.097 7.49,-4.448c2.166,-1.352 3.905,-2.455 5.218,-3.308c1.312,-0.853 2,-1.286 2.064,-1.299c0.704,-0.137 1.127,0.029 1.27,0.499c0.143,0.471 0.165,1.014 0.068,1.63c-0.292,1.85 -1.463,3.771 -3.513,5.764c-2.05,1.993 -4.561,3.96 -7.533,5.9c-2.972,1.941 -6.258,3.81 -9.858,5.607c-3.601,1.798 -7.062,3.402 -10.384,4.813c-3.322,1.411 -6.359,2.584 -9.11,3.519c-2.751,0.935 -4.798,1.533 -6.142,1.795c-2.11,0.411 -4.199,0.686 -6.267,0.823c-2.067,0.138 -3.897,-0.053 -5.489,-0.573c-1.591,-0.519 -2.791,-1.464 -3.597,-2.833c-0.792,-1.345 -1.003,-3.25 -0.632,-5.715Zm15.65,-13.147c0.448,-0.088 1.181,-0.314 2.199,-0.678c1.019,-0.365 2.083,-0.821 3.192,-1.369c1.109,-0.548 2.102,-1.14 2.977,-1.776c0.875,-0.635 1.361,-1.261 1.458,-1.877c0.054,-0.343 -0.028,-0.509 -0.246,-0.5c-0.219,0.009 -0.424,0.033 -0.616,0.07c-0.575,0.112 -1.287,0.401 -2.135,0.865c-0.849,0.464 -1.692,0.993 -2.529,1.588c-0.838,0.595 -1.649,1.218 -2.434,1.869c-0.785,0.651 -1.407,1.253 -1.866,1.808Z" style="fill:#a37351;"/></g></svg>