<?xml version="1.0" encoding="utf-8"?><!DOCTYPE svg PUBLIC "-//W3C//DTD SVG 1.1//EN" "http://www.w3.org/Graphics/SVG/1.1/DTD/svg11.dtd"><svg version="1.1" id="Contours" xmlns="http://www.w3.org/2000/svg" xmlns:xlink="http://www.w3.org/1999/xlink" x="0px" y="0px" width="744.708618px" height="744.708618px" viewBox="-0.000000 0.000000 744.708618 597.292236" enable-background="new 0 0 744.708618 744.708618" xml:space="preserve" stroke="black" fill="none" stroke-linecap='round' stroke-linejoin='round'><path class="selected"  fill="#000000" opacity="1.000000" stroke="none" 
 	d="
M196.999991 396.499867 C197.000980 397.502175 197.001969 398.504483 197.002958 399.506791 C196.237749 399.974529 195.302539 400.156959 194.417638 400.011105 C193.927989 398.221962 193.791910 396.336789 194.019527 394.495867 C194.743891 394.020142 195.657700 393.842222 196.507634 394.011427 C196.985844 394.732156 197.155440 395.650560 196.966177 396.494547 z"/><path class="selected"  fill="#000000" opacity="1.000000" stroke="none" 
 	d="
M21.178170 136.512957 C21.026786 137.681055 19.580037 138.470886 18.515608 137.966543 C18.009715 136.810020 17.503822 135.653495 16.997930 134.496970 C17.711425 134.019687 18.622246 133.847936 19.460562 134.032599 C19.953884 134.866763 20.447207 135.700927 20.940529 136.535092 z"/><path class="selected"  fill="#000000" opacity="1.000000" stroke="none" 
 	d="
M19.022578 0.110080 C12.683509 1.414983 6.344441 2.719887 0.005372 4.024791 C0.003582 2.683194 0.001791 1.341597 0.000000 0.000000 C6.340859 0.036693 12.681719 0.073386 19.022578 0.110080 z"/><path class="selected"  fill="#000000" opacity="1.000000" stroke="none" 
 	d="
M354.029596 289.696334 C353.186808 289.824313 352.344019 289.952291 351.501230 290.080270 C351.038916 289.313492 350.860225 288.379958 351.006690 287.496652 C351.736386 287.021837 352.653266 286.843781 353.507641 287.010973 C353.986267 287.732166 354.155818 288.651357 353.965994 289.495849 z"/><path class="selected"  fill="#000000" opacity="1.000000" stroke="none" 
 	d="
M194.514094 405.061902 C195.322515 404.770847 196.281315 404.947092 196.933385 405.506611 C197.799765 407.023341 195.141125 408.844263 194.039986 407.488319 C193.834732 406.635530 193.972618 405.705205 194.416403 404.948613 z"/><path class="selected"  fill="#000000" opacity="1.000000" stroke="none" 
 	d="
M349.123185 130.602384 C349.817532 129.472522 351.972583 130.109291 351.941340 131.435085 C351.145180 132.533943 349.014761 131.862953 348.992017 130.506175 z"/><path class="selected"  fill="#000000" opacity="1.000000" stroke="none" 
 	d="
M60.265361 597.162408 C52.031352 598.380834 44.555680 590.830402 42.852781 582.682788 C41.149883 574.535174 43.681464 566.154813 46.361921 558.274545 C61.810411 512.857579 83.202825 469.429458 110.230537 429.795390 C154.554695 364.797412 213.634250 310.618793 279.144938 267.055989 C344.655626 223.493185 416.591213 190.269851 490.375381 162.970315 C494.202715 161.554233 498.159547 160.133101 502.236931 160.302561 C509.848379 160.618894 516.670901 167.274979 517.175090 174.876295 C517.679280 182.477612 511.795646 189.976486 504.292659 191.295354 C467.640605 197.738023 433.114244 212.864394 399.746612 229.341105 C326.838053 265.342858 256.855645 308.897748 198.863327 365.894898 C140.871009 422.892049 95.192657 494.128477 76.803900 573.334776 C74.471281 583.382117 70.468816 595.652551 60.265361 597.162406 z"/><path class="selected"  fill="#000000" opacity="1.000000" stroke="none" 
 	d="
M536.266257 311.885028 C604.458007 274.696084 676.050261 231.131155 706.884405 159.840287 C712.487949 146.884470 706.593042 131.204222 696.300824 121.543831 C686.008606 111.883440 672.204894 107.020896 658.683362 102.968602 C529.801900 64.343875 381.376802 80.088397 274.210151 161.437087 C251.548214 178.639442 230.968018 198.443048 211.500921 219.191941 C152.651793 281.915945 102.572934 355.979084 84.155850 439.992962 C89.752967 449.760463 85.363025 463.862564 75.210912 468.727378 C65.058800 473.592191 51.317104 468.178629 47.210858 457.696715 C44.398240 450.517020 45.817053 442.442796 47.551899 434.929531 C66.164852 354.320650 115.942835 284.560533 169.869391 221.821708 C186.739238 202.195117 204.162153 182.978809 223.312863 165.570619 C284.451865 109.994643 362.575469 74.128699 444.043018 60.355351 C525.510566 46.582003 610.109485 54.520949 688.806991 79.687775 C699.505097 83.108941 710.283810 86.936457 719.326795 93.598157 C744.079028 111.832400 749.952633 148.080604 740.311083 177.273088 C730.669534 206.465571 708.688320 229.815189 685.771614 250.308729 C632.073965 298.328488 569.530365 336.424549 502.227279 362.107794 C484.821675 368.749874 466.889608 374.675668 451.395103 385.019390 C445.833700 388.732036 439.289318 390.620963 432.883348 392.538380 C354.087768 416.123213 278.987095 452.008654 211.135289 498.496505 C196.636818 508.429958 181.499421 517.430718 165.847722 525.424683 C154.914357 531.008803 142.863504 536.233721 130.752166 534.224652 C118.640827 532.215584 107.577450 519.839203 111.484343 508.200601 C115.457189 496.365525 130.383763 493.352469 142.674254 491.162441 C154.964745 488.972412 169.805109 482.346090 169.494601 469.865867 C171.158180 473.282476 172.821759 476.699086 174.485338 480.115696 C229.776396 431.254229 301.125594 405.399422 370.625285 380.613598 C339.087138 376.596899 306.929321 377.483512 275.660403 383.231846 C262.159066 385.713874 243.162029 385.747194 240.411164 372.298056 C238.867958 364.753231 244.635990 357.254375 251.694156 354.174099 C258.752322 351.093823 266.757102 351.364062 274.451277 351.688847 C315.521072 353.422473 356.590865 355.156102 397.660658 356.889731 C446.826995 358.965129 493.063165 335.446198 536.266257 311.885028 z"/></svg>