<?xml version="1.0" encoding="UTF-8" standalone="no"?><!DOCTYPE svg PUBLIC "-//W3C//DTD SVG 1.1//EN" "http://www.w3.org/Graphics/SVG/1.1/DTD/svg11.dtd"><svg width="100%" height="100%" viewBox="0 0 215 184" version="1.1" xmlns="http://www.w3.org/2000/svg" xmlns:xlink="http://www.w3.org/1999/xlink" xml:space="preserve" xmlns:serif="http://www.serif.com/" style="fill-rule:evenodd;clip-rule:evenodd;stroke-linejoin:round;stroke-miterlimit:2;"><path id="star" d="M130.457,118.849c-7.897,2.96 -15.214,5.592 -22.161,8.982c-5.773,2.817 -10.971,6.795 -16.675,9.777c-8.287,4.334 -16.955,7.948 -25.178,12.391c-11.121,6.009 -22.562,11.441 -32.87,18.951c-6.387,4.653 -13.862,7.645 -19.634,13.415c-2.878,2.877 -10.941,0.826 -12.826,-2.892c-0.804,-1.585 -0.923,-4.571 0.053,-5.835c6.542,-8.476 12.928,-17.185 20.401,-24.803c8.943,-9.117 19.099,-17.032 28.357,-25.858c3.525,-3.361 6.269,-7.648 8.877,-11.82c1.324,-2.118 -0.382,-4.227 -2.191,-5.606c-7.107,-5.417 -14.266,-10.767 -21.44,-16.094c-0.905,-0.673 -2.153,-0.903 -3.011,-1.616c-4.546,-3.777 -4.501,-7.089 0.271,-10.719c1.02,-0.776 3.069,-1.564 3.853,-1.076c8.006,4.99 15.52,0.531 23.179,-0.916c0.664,-0.125 1.28,-0.609 1.936,-0.655c7.683,-0.532 15.375,-1.495 23.053,-1.397c13.373,0.169 24.827,-5.112 35.921,-11.578c3.825,-2.23 7.069,-5.463 10.911,-7.655c2.315,-1.321 5.265,-1.54 7.94,-2.215c7.589,-1.915 13.87,-6.668 19.675,-11.22c13.051,-10.233 25.131,-21.707 37.544,-32.746c1.396,-1.242 2.467,-2.881 3.557,-4.428c2.318,-3.287 9.615,-4.03 12.671,-1.228c3.004,2.755 3.183,5.621 0.071,8.585c-4.186,3.986 -9.035,7.338 -12.864,11.62c-7.956,8.896 -15.341,18.298 -23.133,27.344c-4.083,4.739 -5.082,10.727 -7.216,16.256c-0.319,0.826 -0.085,2.398 0.515,2.955c2.613,2.424 5.149,5.26 8.284,6.719c5.348,2.488 9.962,6.763 16.569,6.62c2.179,-0.047 4.706,1.909 6.536,3.549c2.038,1.825 5.25,3.318 4.458,6.945c-0.523,2.398 -5.524,5.594 -8.565,5.499c-8.836,-0.276 -16.969,3.048 -25.239,5.231c-12.339,3.258 -24.81,6.492 -35.857,13.389c-1.526,0.953 -3.348,1.431 -5.772,2.129m17.019,-19.239c0.175,-0.175 0.318,-0.429 0.528,-0.512c10.802,-4.266 22.144,-6.37 33.509,-8.401c0.784,-0.14 1.577,-0.653 2.157,-1.21c0.147,-0.142 -0.44,-1.59 -0.813,-1.648c-7.883,-1.229 -12.691,-8.182 -20.04,-10.626c-3.866,-1.286 -6.606,-4.832 -5.732,-9.756c1.014,-5.713 1.123,-11.751 5.999,-16.005c0.95,-0.829 1.516,-1.335 0.288,-2.688c-1.573,-1.735 -1.908,0.193 -2.727,0.552c-1.045,0.459 -2.181,0.919 -2.984,1.686c-5.471,5.23 -12.444,8.272 -19.074,11.144c-6.17,2.673 -11.829,6.066 -17.561,9.327c-9.04,5.143 -17.906,10.174 -28.88,8.942c-2.678,-0.301 -5.485,-0.428 -8.117,0.029c-7.313,1.268 -14.574,2.847 -21.838,4.381c-4.293,0.906 -8.558,1.942 -12.825,2.964c-0.596,0.142 -1.132,0.536 -1.695,0.813c0.523,0.523 0.977,1.153 1.584,1.544c0.957,0.616 1.969,1.381 3.04,1.544c8.797,1.345 12.7,9.055 18.473,14.256c2.332,2.101 2.348,4.442 0.422,7.346c-3.877,5.847 -7.513,12.058 -12.391,16.99c-7.769,7.854 -16.501,14.752 -24.761,22.127c-2.387,2.131 -4.594,4.472 -6.775,6.817c-0.364,0.391 -0.176,1.296 -0.243,1.963c0.523,-0.137 1.145,-0.138 1.553,-0.433c2.097,-1.52 4.022,-3.31 6.225,-4.647c6.269,-3.806 11.885,-8.392 19.157,-10.921c8.761,-3.046 16.838,-8.16 25.046,-12.679c15.42,-8.489 29.807,-18.849 47.17,-23.688c6.926,-1.93 13.235,-6.074 21.305,-9.211Z" style="fill-rule:nonzero;"/></svg>