<?xml version="1.0" encoding="utf-8"?><!DOCTYPE svg PUBLIC "-//W3C//DTD SVG 1.1//EN" "http://www.w3.org/Graphics/SVG/1.1/DTD/svg11.dtd"><svg version="1.1" id="Contours" xmlns="http://www.w3.org/2000/svg" xmlns:xlink="http://www.w3.org/1999/xlink" x="0px" y="0px" width="1241.518921px" height="1241.518921px" viewBox="0.000002 0.000001 1241.518921 1241.388550" enable-background="new 0 0 1241.518921 1241.518921" xml:space="preserve" stroke="black" fill="none" stroke-linecap='round' stroke-linejoin='round'><path class="selected"  fill="#000000" opacity="1.000000" stroke="none" 
 	d="
M1240.083731 584.935768 C1240.083731 587.326148 1240.171011 589.221412 1240.066885 591.106056 C1239.782461 596.251380 1239.465933 601.396095 1239.064810 606.533424 C1238.836050 609.460548 1238.613882 612.412452 1238.034781 615.281776 C1237.287100 618.986244 1235.920157 622.576270 1235.316763 626.296119 C1234.792227 629.529823 1235.041861 632.881812 1234.794546 636.169837 C1234.579825 639.023963 1234.184561 641.866676 1233.803946 644.705726 C1233.261709 648.752357 1232.811880 652.820167 1232.042227 656.825050 C1231.228018 661.060829 1229.886832 665.198341 1229.137442 669.442665 C1228.250845 674.465431 1227.897452 679.581947 1227.021231 684.606971 C1226.592398 687.066322 1225.278311 689.364478 1224.775503 691.819740 C1224.269034 694.293128 1224.512930 696.921485 1223.994009 699.390724 C1223.208975 703.126380 1221.974722 706.765113 1221.066763 710.478126 C1220.140860 714.263648 1219.418692 718.098426 1218.535147 721.894874 C1217.399893 726.773048 1216.184439 731.632423 1215.018790 736.503517 C1213.609976 742.390174 1212.273550 748.294776 1210.797720 754.164405 C1209.799063 758.136390 1208.725577 762.097022 1207.484610 765.998817 C1205.825308 771.215919 1203.971304 776.371070 1202.200552 781.552711 C1200.510123 786.498756 1198.617056 791.386878 1197.182486 796.406104 C1195.568594 802.053016 1194.849844 807.991310 1192.872916 813.490577 C1190.020132 821.426673 1186.195303 829.008094 1183.145010 836.880287 C1180.804312 842.921546 1179.322745 849.300514 1176.901602 855.304481 C1174.464346 861.349159 1171.343985 867.118812 1168.513541 873.004554 C1162.641958 885.214698 1156.941885 897.511756 1150.828116 909.599464 C1146.586416 917.985267 1141.865713 926.135169 1137.188589 934.292640 C1131.594839 944.048499 1125.947500 953.778663 1120.076529 963.368751 C1116.294913 969.545753 1111.890860 975.340309 1108.079947 981.500709 C1100.490469 993.769019 1091.161368 1004.720680 1082.441763 1016.140357 C1075.322012 1025.464698 1067.800894 1034.416602 1059.671499 1042.872169 C1054.635000 1048.110938 1049.636343 1053.391578 1044.786246 1058.801734 C1042.455435 1061.401588 1040.812369 1064.661353 1038.318350 1067.061744 C1034.130362 1071.092140 1029.360586 1074.513404 1025.112295 1078.486915 C1019.923331 1083.340553 1015.204825 1088.703468 1009.943472 1093.471534 C1004.171866 1098.702125 998.279166 1103.874854 991.968863 1108.419776 C978.461294 1118.148170 964.758780 1127.617652 950.924917 1136.877540 C942.024649 1142.835060 932.975455 1148.646705 923.581595 1153.769630 C912.709280 1159.698829 901.369681 1164.768409 890.264212 1170.274269 C884.104788 1173.328102 878.136893 1176.804176 871.844595 1179.542823 C866.741080 1181.764015 861.271292 1183.136817 855.984549 1184.945777 C851.629385 1186.436134 847.353384 1188.175269 842.954275 1189.515235 C836.521536 1191.474952 829.992728 1193.117408 823.537344 1195.005836 C818.191458 1196.569679 812.867239 1198.217506 807.579458 1199.967140 C801.819632 1201.873145 796.031973 1203.736549 790.401358 1205.981666 C781.245291 1209.632545 771.950186 1213.078468 763.206595 1217.570411 C757.041067 1220.737892 751.596609 1225.368385 746.014456 1229.589332 C742.751395 1232.056617 740.211844 1235.700782 736.680716 1237.528907 C733.408316 1239.222999 730.644278 1242.163185 725.719168 1241.198829 C718.722342 1239.829078 711.351675 1240.488258 704.179617 1239.846046 C700.426932 1239.509864 696.791373 1238.011207 693.040518 1237.468849 C689.337271 1236.933326 685.552908 1236.975562 681.808890 1236.700050 C679.083304 1236.499488 676.332144 1236.379981 673.650870 1235.898536 C667.364981 1234.769996 661.154288 1233.154029 654.837515 1232.285743 C648.895376 1231.469093 642.806875 1231.699195 636.873465 1230.841163 C630.741446 1229.954566 624.767325 1227.967506 618.633963 1227.099830 C612.842093 1226.280494 606.929007 1226.343727 601.077322 1225.910499 C598.647024 1225.730445 596.205984 1225.416358 593.824820 1224.906471 C588.072256 1223.675025 582.403372 1221.957740 576.603812 1221.069557 C571.313467 1220.259132 565.878653 1220.441139 560.540457 1219.874977 C557.390982 1219.540992 554.329764 1218.436988 551.185293 1217.978004 C547.384512 1217.423438 543.535025 1217.209083 539.711722 1216.799537 C537.471487 1216.559547 535.207327 1216.382423 533.013113 1215.904884 C527.574515 1214.721290 522.212942 1213.127540 516.735708 1212.197975 C513.398001 1211.631568 509.893057 1212.131812 506.482168 1211.887916 C504.080862 1211.716285 501.718069 1211.055519 499.326590 1210.688331 C493.204825 1209.748390 487.036124 1209.058326 480.963370 1207.873023 C475.676077 1206.841163 470.544729 1205.002296 465.253287 1204.002418 C458.426993 1202.712867 451.406363 1202.342506 444.664541 1200.750221 C439.165030 1199.451270 434.036795 1196.657447 428.595389 1195.020240 C415.675101 1191.132789 402.623404 1187.680519 389.717917 1183.746803 C385.324270 1182.407569 381.300864 1179.889259 376.944754 1178.382301 C370.690695 1176.218727 364.210409 1174.705421 357.968619 1172.510841 C351.862143 1170.363746 345.966208 1167.625343 339.915549 1165.309303 C335.953268 1163.792701 331.847830 1162.653541 327.864035 1161.188819 C321.474417 1158.839332 315.163229 1156.275123 308.762442 1153.957618 C301.023520 1151.155494 293.113119 1148.794776 285.489371 1145.716773 C279.423147 1143.267677 273.743887 1139.878394 267.772208 1137.172828 C257.737051 1132.626319 247.434531 1128.637184 237.575949 1123.745338 C231.034720 1120.499732 225.119986 1116.009132 218.836966 1112.221290 C210.779562 1107.363990 202.560904 1102.771461 194.550345 1097.839698 C188.520407 1094.127174 182.734183 1090.020851 176.791891 1086.163185 C171.349539 1082.630226 165.549124 1079.577003 160.432272 1075.630592 C152.113760 1069.214942 144.144476 1062.335548 136.178259 1055.477027 C129.519614 1049.744605 123.076391 1043.761695 116.537756 1037.889747 C109.999121 1032.017799 102.886313 1026.659400 97.062536 1020.148048 C89.210013 1011.368751 82.349493 1001.702003 75.063818 992.415626 C70.211569 986.230934 65.068396 980.247169 60.610312 973.790260 C57.601248 969.432105 55.624151 964.370826 53.068426 959.687965 C49.256018 952.702735 45.204382 945.844642 41.534369 938.786842 C40.018210 935.871070 39.283209 932.556861 38.092505 929.462501 C36.174353 924.477699 33.939001 919.602638 32.261099 914.540809 C29.680304 906.755042 27.443854 898.854652 25.089651 890.994422 C23.888365 886.983558 22.655607 882.978309 21.605109 878.926978 C20.338194 874.041053 19.263983 869.105445 18.079863 864.197669 C16.763380 858.741432 15.253027 853.325660 14.134909 847.829627 C13.217215 843.318946 12.840109 838.700843 12.050734 834.160438 C11.561903 831.348670 10.565581 828.621498 10.130957 825.804908 C9.599287 822.359413 9.443251 818.857276 9.075407 815.384803 C8.783377 812.628211 8.515478 809.862953 8.059454 807.131141 C7.455817 803.515357 6.485052 799.952735 6.028197 796.322486 C5.508513 792.192970 5.377875 788.014259 5.088438 783.856239 C5.053801 783.358680 5.163367 782.841407 5.071471 782.358985 C4.091177 777.212623 2.611220 772.108497 2.203985 766.919288 C1.701086 760.511451 2.162070 754.032569 2.037817 747.587684 C1.998602 745.553565 1.180624 743.535743 1.129553 741.500221 C0.994391 736.113441 1.174834 730.719154 1.065947 725.331153 C0.785811 711.468910 -0.766687 697.501319 0.475271 683.782813 C1.393828 673.636573 -1.459039 663.552650 1.740477 653.298927 C3.621145 647.271827 2.083731 640.178077 2.083731 633.564124 C2.083731 633.064186 2.006323 632.549903 2.095595 632.066444 C3.076674 626.753639 4.369826 621.478797 4.990416 616.125526 C5.461027 612.065956 4.962279 607.903297 5.126204 603.795692 C5.236395 601.034522 5.543577 598.243934 6.136046 595.548622 C6.877730 592.174537 8.318053 588.935645 8.867041 585.542945 C9.356489 582.518287 8.890341 579.351661 9.132788 576.270240 C9.321348 573.873634 9.848707 571.487403 10.404883 569.139076 C11.913473 562.769691 13.803908 556.476600 15.007216 550.052894 C16.345427 542.909156 16.696875 535.570167 18.213675 528.473426 C19.577605 522.091895 22.032439 515.950294 23.835852 509.654151 C26.331007 500.943092 28.526510 492.144569 31.105582 483.459327 C34.422659 472.288917 37.933417 461.174659 41.472433 450.071815 C44.297995 441.207313 47.068930 432.314704 50.273749 423.584937 C53.268561 415.427223 56.662710 407.406440 60.138174 399.437507 C63.647635 391.390602 67.285422 383.387458 71.219031 375.541633 C74.391592 369.213722 78.111868 363.161689 81.546454 356.963630 C85.639441 349.577430 89.735129 342.191993 93.740759 334.758338 C97.912588 327.016181 101.737692 319.075721 106.183111 311.496925 C108.753744 307.114356 112.360754 303.352882 115.305777 299.174049 C121.356100 290.589027 127.205588 281.862220 133.273138 273.289649 C137.066122 267.930671 141.038534 262.694312 145.054663 257.498939 C148.993277 252.403846 153.035315 247.385993 157.129614 242.414680 C162.278494 236.162910 167.545462 230.008613 172.726309 223.782966 C177.446127 218.111335 181.786886 212.080604 186.891623 206.783363 C194.220816 199.177863 202.137015 192.140937 209.716452 184.772621 C215.291189 179.353126 220.596396 173.651405 226.265158 168.334983 C231.365866 163.551322 236.749319 159.063423 242.097433 154.550941 C247.412161 150.066581 252.709219 145.543846 258.248099 141.346855 C265.243338 136.046348 272.502341 131.095252 279.596670 125.923652 C284.881705 122.070991 289.870138 117.768196 295.374075 114.268867 C304.850668 108.243781 314.614676 102.669425 324.279623 96.942314 C330.861990 93.041847 337.424063 89.101707 344.096915 85.360694 C354.477438 79.540977 364.837332 73.666877 375.420126 68.232841 C380.695151 65.524223 386.497000 63.861320 391.968527 61.511100 C400.414480 57.883247 408.708304 53.892524 417.214163 50.416602 C421.186880 48.793151 425.575735 48.218933 429.650687 46.807510 C436.620230 44.393493 443.437308 41.535354 450.424063 39.176414 C454.544424 37.785224 458.911185 37.141960 463.090628 35.903823 C470.632498 33.669570 478.064688 31.052116 485.644034 28.962089 C490.530936 27.614524 495.622549 27.027885 500.577139 25.901054 C504.307120 25.052741 507.926993 23.709213 511.665457 22.912887 C515.691397 22.055335 519.803458 21.608146 523.868277 20.924522 C526.244559 20.524879 528.624136 20.103126 530.962027 19.527824 C533.637076 18.869575 536.225882 17.793670 538.925894 17.318618 C544.489493 16.339752 550.092093 15.560340 555.697439 14.846946 C561.428396 14.117576 567.183707 13.580299 572.924917 12.929077 C575.515005 12.635276 578.108877 12.341949 580.679617 11.918266 C584.305105 11.320747 587.888174 10.407508 591.530630 9.984794 C596.149771 9.448745 600.812552 9.297714 605.452200 8.926551 C609.041434 8.639419 612.644400 8.411231 616.204886 7.902534 C621.575979 7.135169 626.886587 5.828674 632.276236 5.339401 C637.810599 4.836975 643.412039 5.114379 648.977957 4.894714 C650.850027 4.820846 652.692923 4.066429 654.566824 3.970840 C662.705130 3.555763 670.852103 3.310546 678.990652 2.899177 C680.532034 2.821258 682.035086 2.088752 683.580374 1.965438 C692.689383 1.238510 701.797964 0.434135 710.923270 0.018249 C714.595511 -0.149117 718.311697 0.890525 722.004080 0.863403 C726.701285 0.828903 731.395926 -0.014123 736.089224 0.008415 C741.785635 0.035758 747.476126 0.786430 753.175223 0.888626 C760.110037 1.012977 766.924490 0.479621 773.990896 1.528541 C780.700186 2.524436 787.655264 2.202941 794.471365 3.819824 C800.634085 5.281738 807.025687 5.791412 813.323965 6.666061 C819.068960 7.463859 824.924612 7.754661 830.548636 9.058135 C837.060293 10.567375 843.378897 12.917724 849.769095 14.941337 C857.041128 17.244193 864.362051 19.413803 871.547476 21.963348 C879.437063 24.762786 887.195853 27.930496 895.012564 30.935386 C902.899222 33.967170 910.943411 36.650909 918.625296 40.134071 C924.912344 42.984756 930.749747 46.820014 936.819815 50.158576 C944.102652 54.164367 951.574087 57.854080 958.669058 62.165748 C963.292471 64.975440 967.311148 68.761238 971.743643 71.908485 C977.837759 76.235526 984.135245 80.276542 990.215567 84.622032 C994.691397 87.820670 998.879629 91.419944 1003.334952 94.648902 C1013.548575 102.051139 1022.872671 110.456077 1031.923819 119.215934 C1040.573111 127.586692 1049.823233 135.362831 1058.147208 144.035697 C1065.911978 152.125999 1072.806753 161.051505 1080.083487 169.610145 C1083.859244 174.051109 1087.863394 178.321159 1091.351553 182.977744 C1096.134390 189.362861 1100.482779 196.071723 1105.097647 202.585029 C1108.520254 207.415534 1112.368155 211.970008 1115.490591 216.981361 C1119.641592 223.643226 1123.220450 230.659065 1127.138907 237.468818 C1131.275137 244.657508 1135.733877 251.668189 1139.671011 258.962104 C1145.915030 270.529182 1152.677969 281.823860 1157.214834 294.287208 C1159.003531 299.201026 1162.480948 303.474037 1164.779410 308.236762 C1166.546988 311.899055 1167.586416 315.905616 1169.102896 319.697822 C1171.771475 326.371955 1174.768545 332.922126 1177.231558 339.668891 C1179.457510 345.765876 1181.010245 352.105537 1183.121573 358.248206 C1185.536490 365.274207 1188.433340 372.137367 1190.755728 379.191444 C1192.511465 384.524330 1193.574454 390.081184 1195.163809 395.474098 C1196.911490 401.404426 1199.109122 407.206336 1200.742300 413.165199 C1202.421011 419.290321 1203.538565 425.567359 1205.119742 431.721900 C1206.430166 436.822547 1208.364615 441.775672 1209.469595 446.913123 C1210.953116 453.811256 1211.806021 460.842506 1213.120352 467.780494 C1213.922964 472.017738 1215.174673 476.168311 1216.050284 480.393897 C1216.592398 483.011085 1216.807120 485.696082 1217.168570 488.350685 C1217.473746 490.591163 1217.646109 492.859596 1218.108633 495.067054 C1219.488760 501.652320 1220.889151 508.236122 1222.455923 514.778785 C1224.487784 523.262916 1226.334952 531.817359 1228.940787 540.128578 C1230.653677 545.592140 1233.689566 550.627967 1235.906729 555.949561 C1238.391470 561.913368 1242.821280 567.298927 1241.152334 574.542823 C1240.412833 577.752174 1240.416983 581.132850 1240.083731 584.935768 M508.083731 184.435783 C506.750418 186.379096 505.365225 188.289100 504.092337 190.271278 C496.865286 201.525825 489.409231 212.644416 482.542288 224.115302 C477.636282 232.310554 473.715140 241.089240 469.013663 249.415077 C465.306570 255.980018 460.823660 262.108985 457.158499 268.694923 C453.750357 274.819007 451.154043 281.390296 447.860159 287.583808 C444.132315 294.593299 439.961783 301.365852 436.112723 308.312934 C434.385184 311.430915 433.065481 314.772743 431.393118 317.923988 C428.919485 322.585060 426.030936 327.042335 423.794852 331.809577 C419.707388 340.524207 415.761465 349.318427 412.145956 358.237312 C408.971670 366.067909 406.322317 374.111640 403.457815 382.067268 C402.351828 385.139015 401.225485 388.206031 400.228964 391.313911 C399.109488 394.805030 397.991019 398.306526 397.114340 401.863197 C395.679831 407.683265 394.573019 413.585395 393.086691 419.391090 C391.212393 426.712043 388.871481 433.918403 387.148428 441.271797 C385.509512 448.266151 384.491629 455.403602 383.034262 462.443702 C382.262045 466.174232 380.959311 469.795936 380.210135 473.529823 C379.015005 479.486122 378.205984 485.520240 376.991568 491.472083 C376.258871 495.063270 374.750021 498.508582 374.156668 502.112769 C373.211813 507.851478 373.044058 513.725196 371.970724 519.433387 C371.126669 523.921913 369.082205 528.178626 368.157828 532.659400 C366.614889 540.138709 365.507864 547.709327 364.285635 555.252601 C363.792380 558.296790 363.379965 561.361427 363.109854 564.432533 C362.800009 567.955177 362.899740 571.523048 362.438559 575.020790 C361.855765 579.441078 360.597342 583.781471 360.153799 588.208717 C359.541159 594.323585 359.324515 600.484229 359.114371 606.631263 C358.958731 611.183021 359.332541 615.761390 359.023306 620.297401 C358.597922 626.537574 357.355520 632.738685 357.193747 638.975562 C357.029135 645.324439 357.887503 651.692848 358.046164 658.058998 C358.213614 664.778541 357.955008 671.508766 358.122946 678.228248 C358.266836 683.985328 358.751669 689.733863 359.083365 695.486244 C359.418356 701.295692 359.757223 707.104896 360.080557 712.914955 C360.225180 715.513099 365.815542 720.871986 368.283499 720.958167 C376.095114 721.230873 383.905630 721.557044 391.710806 721.971229 C393.418906 722.061866 395.099173 722.864417 396.799093 722.890174 C403.911673 722.998390 411.039053 722.675636 418.137564 723.009620 C425.101065 723.337257 432.039480 724.237281 438.981558 724.956825 C440.857840 725.151283 442.703482 725.860206 444.570181 725.890052 C451.682547 726.003456 458.810171 725.675697 465.908621 726.009681 C472.872122 726.337318 479.810538 727.237281 486.752615 727.956825 C488.628897 728.151283 490.474600 728.861244 492.341177 728.890052 C499.620291 729.002174 506.905081 728.812782 514.182181 728.977760 C519.272818 729.093299 524.360220 729.532936 529.438833 729.952308 C536.725088 730.554054 544.005179 731.236366 551.280447 731.959876 C552.991934 732.130042 554.669424 732.865272 556.369192 732.890174 C563.648489 732.997169 571.028250 732.205421 578.180411 733.164894 C583.992850 733.944679 589.617850 735.201515 595.473135 733.959144 C596.270560 733.789955 597.176687 733.766761 597.961844 733.961219 C608.483999 736.568153 619.114432 735.485999 629.723868 734.918373 C633.981863 734.690589 638.232474 734.302650 642.480948 733.925636 C646.145071 733.600440 649.821463 733.321388 653.456290 732.779701 C658.049551 732.095191 662.630301 731.278114 667.171316 730.306922 C671.132254 729.459693 675.006033 728.208045 678.962637 727.336402 C684.021597 726.222022 689.162710 725.467506 694.198538 724.265235 C699.116629 723.091041 703.913809 721.414710 708.824576 720.203834 C714.104849 718.901893 719.464041 717.923011 724.773001 716.732765 C729.535879 715.664955 734.258353 714.411353 739.033499 713.405250 C743.976309 712.363807 749.022085 711.763770 753.912283 710.531654 C760.237417 708.937965 766.398978 706.691566 772.729056 705.121436 C781.116202 703.040992 789.610892 701.398109 798.033804 699.455909 C802.032706 698.533790 805.928274 697.130775 809.948111 696.338661 C817.569998 694.836646 822.266104 688.110755 823.235586 680.457862 C824.038199 674.122169 823.429678 668.223304 822.487723 661.951270 C821.714041 656.799537 819.736258 652.159461 818.826956 647.175697 C818.231863 643.913856 817.689261 640.642433 817.077322 637.383888 C816.303396 633.262794 815.560904 629.133338 814.658194 625.039832 C813.910452 621.648719 812.514151 618.345802 812.190848 614.929420 C811.758108 610.356117 812.330923 605.694496 812.024283 601.100685 C811.592825 594.637428 810.585867 588.212928 810.141104 581.750038 C809.840384 577.380287 810.083731 572.973121 810.083731 568.582679 C810.083731 566.582740 810.251333 564.565894 810.052054 562.585975 C809.474905 556.853248 808.558890 551.149146 808.146048 545.407142 C807.831961 541.039283 808.190481 536.627113 808.038931 532.241859 C807.962698 530.037818 807.242178 527.859901 807.115774 525.652870 C806.697562 518.348243 806.450918 511.033851 806.045584 503.728370 C805.987723 502.684486 805.209708 501.686988 805.119253 500.637489 C804.705008 495.834876 804.563467 491.005409 804.039297 486.216773 C803.586539 482.079078 802.720694 477.987831 802.094595 473.867408 C801.703055 471.290504 801.301077 468.706275 801.107718 466.110084 C800.695914 460.582557 800.814078 454.983619 799.968741 449.529579 C799.171316 444.384559 797.345389 439.405128 796.117056 434.317817 C795.584830 432.113410 795.427115 429.819496 795.081778 427.568946 C794.087210 421.087043 793.227408 414.579780 792.028860 408.135658 C791.330252 404.379554 789.811087 400.773414 789.148001 397.013923 C788.169241 391.464851 788.041250 385.743537 786.785269 380.271308 C785.323233 373.901283 782.688467 367.802192 781.195242 361.437110 C779.396963 353.771308 778.600088 345.867866 776.744742 338.218879 C775.022208 331.117195 772.298392 324.264655 770.338858 317.212562 C767.755179 307.914222 765.576773 298.503974 763.056265 289.187293 C760.923575 281.304054 758.571768 273.479652 756.280691 265.639808 C753.904349 257.508033 751.532156 249.374519 749.067679 241.269233 C747.298147 235.449348 745.400809 229.667884 743.522269 223.881660 C741.398306 217.339729 739.376578 210.759590 737.049917 204.289741 C733.512259 194.452735 729.922720 184.627479 726.044302 174.921516 C719.826285 159.360633 710.406241 145.580497 701.248587 131.693000 C697.580069 126.129737 693.746451 120.545158 689.190481 115.723915 C679.160574 105.109855 668.670523 94.927192 658.252615 84.686149 C656.197439 82.665855 649.524466 81.999839 646.826468 83.201499 C645.770682 83.671760 645.011954 85.033515 643.963309 85.253974 C640.446707 85.993339 636.856436 86.873359 633.301565 86.843437 C624.185660 86.766731 615.036307 86.961189 606.306814 89.457771 C601.159964 90.929756 596.676687 94.575324 591.683157 96.758872 C578.515372 102.516807 568.686026 112.579811 558.493826 122.150245 C555.853873 124.629127 554.164725 128.093467 551.670462 130.760581 C547.158499 135.585151 542.116324 139.929237 537.775015 144.893302 C534.251761 148.921989 531.505423 153.620872 528.283133 157.924064 C521.763907 166.629997 515.155386 175.269111 508.083731 184.435783 M1033.083731 185.435768 C1027.473013 179.158332 1022.056875 172.691825 1016.196036 166.657264 C1010.481314 160.773185 1004.572134 155.018791 998.279410 149.769630 C989.536246 142.476447 980.389395 135.663581 971.350455 128.729682 C965.258047 124.056068 959.255728 119.220909 952.849478 115.011436 C944.302725 109.395622 935.591666 103.968208 926.601065 99.107627 C918.000479 94.457847 908.999624 90.531074 900.078665 86.499122 C895.944205 84.630531 891.522452 83.406837 887.335806 81.642234 C880.710806 78.849952 874.223990 75.728004 867.583853 72.974220 C862.341727 70.800208 856.952017 68.983436 851.636832 66.984184 C845.193777 64.560737 838.776663 62.067603 832.315115 59.694801 C829.412894 58.629035 826.408438 57.844482 823.488760 56.822723 C818.001517 54.902442 812.638235 52.550804 807.047415 51.022659 C799.658194 49.002960 792.100333 47.599319 784.613699 45.936920 C780.081839 44.930633 775.589590 43.562560 771.001944 43.043083 C766.610708 42.545867 762.115408 43.050826 757.672354 42.910125 C750.083975 42.669807 742.451041 41.590316 734.929983 42.139350 C728.291312 42.623969 721.775687 44.831909 715.214163 46.316253 C712.568472 46.914764 711.127676 47.856124 713.031180 50.957664 C718.753714 60.281562 724.263296 69.736808 729.804373 79.171089 C733.489554 85.445442 736.853323 91.922065 740.793020 98.029380 C744.226370 103.351600 748.692923 108.028892 751.920523 113.456428 C755.443899 119.381370 758.004080 125.873084 761.098746 132.060401 C765.686514 141.232963 770.657217 150.225776 774.926871 159.541709 C778.046622 166.348609 780.590628 173.459617 782.873770 180.600547 C786.504019 191.955177 789.623709 203.471961 793.116080 214.872138 C794.932120 220.799934 797.031058 226.643562 799.101370 232.490089 C800.618765 236.775062 802.558401 240.926795 803.828238 245.278449 C805.012320 249.336219 805.301016 253.653816 806.464773 257.719428 C807.550101 261.511024 809.512991 265.047950 810.649161 268.829322 C812.274344 274.238441 813.484671 279.771583 814.898672 285.244972 C816.016226 289.570594 817.110831 293.903785 818.329092 298.201423 C820.003348 304.107673 821.850638 309.965186 823.498282 315.878578 C824.687491 320.146675 825.715933 324.461372 826.737051 328.774024 C827.993887 334.082862 829.114981 339.424171 830.398733 344.726234 C831.189261 347.991157 832.351370 351.172706 833.025198 354.457649 C833.822195 358.343330 834.050772 362.350562 834.928702 366.213477 C836.095694 371.348121 837.910574 376.340827 838.974844 381.492134 C840.268729 387.754310 840.994131 394.131873 842.125906 400.430732 C842.543753 402.756538 843.670584 404.961097 844.032767 407.289558 C844.867483 412.656684 845.369314 418.074684 846.130118 423.454536 C846.568472 426.554084 847.412833 429.600196 847.776785 432.705268 C848.213553 436.431617 848.125662 440.224220 848.645315 443.934852 C849.239981 448.180763 850.897635 452.362525 850.933890 456.582130 C850.989187 463.039588 850.716299 469.430702 853.054251 475.605873 C853.275015 476.188941 853.057303 476.929237 853.087759 477.594459 C853.414541 484.737403 853.711844 491.882179 854.121023 499.020484 C854.190359 500.230811 855.020926 501.408973 855.038748 502.608924 C855.134146 509.054969 854.823538 515.516578 855.156668 521.946754 C855.491568 528.411415 856.384390 534.849098 857.107535 541.290199 C857.281119 542.836646 858.010245 544.345252 858.038138 545.879310 C858.149039 551.991432 857.830801 558.119789 858.146963 564.217506 C858.553946 572.068885 859.174429 579.926917 860.150076 587.726173 C861.184317 595.993080 862.749624 604.193275 864.059195 612.426429 C864.162466 613.075721 864.040518 613.757484 864.090201 614.419105 C864.389883 618.404762 864.545096 622.410865 865.072317 626.366920 C865.512869 629.672157 866.575308 632.892921 867.043997 636.196266 C867.853934 641.904456 868.218680 647.680213 869.151968 653.364906 C869.796377 657.289955 871.265005 661.073524 872.039480 664.984840 C873.094900 670.314491 873.699759 675.734046 874.780264 681.057716 C875.283804 683.538734 876.191031 683.892005 877.960989 683.313697 C886.990469 680.363197 896.083304 677.591346 905.033011 674.415809 C913.050162 671.571205 920.873282 668.184791 928.848379 665.215736 C939.096792 661.400550 949.361197 657.615882 959.712393 654.092994 C969.262686 650.842567 979.033804 648.227088 988.528311 644.830299 C997.687124 641.553504 1006.552725 637.464210 1015.666006 634.049476 C1024.018179 630.920020 1032.559805 628.300269 1040.960928 625.296302 C1048.268057 622.683448 1055.438345 619.681495 1062.774405 617.157630 C1069.765372 614.752357 1076.957144 612.929786 1083.943838 610.512977 C1092.999624 607.380531 1101.928702 603.883399 1110.933462 600.601173 C1116.273184 598.655006 1121.659170 596.836646 1127.014029 594.931617 C1133.553824 592.604896 1140.121939 590.350135 1146.602164 587.866737 C1150.837881 586.243507 1154.817374 583.873939 1159.129507 582.545570 C1165.633414 580.541969 1166.959463 578.042762 1170.494009 571.673744 C1172.437369 568.171913 1170.857779 565.911781 1170.952505 563.207008 C1171.288931 553.604835 1171.283316 543.977577 1170.992911 534.372413 C1170.863150 530.075355 1169.824942 525.794532 1169.058340 521.531715 C1168.523794 518.560340 1167.570059 515.658973 1167.123160 512.678443 C1166.317007 507.304237 1165.943838 501.860511 1165.017935 496.510291 C1164.368033 492.754798 1162.888418 489.147804 1162.153433 485.401161 C1160.572623 477.341590 1159.531607 469.166236 1157.697500 461.169532 C1156.311636 455.127235 1153.790884 449.353309 1152.219351 443.343788 C1149.962393 434.712806 1148.284781 425.930396 1146.032217 417.298103 C1143.939322 409.278266 1141.484732 401.349800 1139.066397 393.418617 C1136.103506 383.701728 1133.127310 373.986030 1129.939810 364.341499 C1127.495718 356.945960 1124.812735 349.624671 1122.056998 342.337989 C1119.140494 334.626686 1116.170401 326.928047 1112.936026 319.346656 C1109.147452 310.466499 1105.279654 301.605354 1101.028921 292.940772 C1094.791983 280.227577 1088.329703 267.618812 1081.668814 255.122566 C1078.700430 249.553443 1075.043814 244.348152 1071.646963 239.011176 C1067.472647 232.452644 1063.497916 225.746803 1058.976065 219.434791 C1052.841910 210.872108 1046.269644 202.623359 1039.887198 194.238380 C1037.782583 191.473396 1035.684683 188.703437 1033.083731 185.435768 M396.083731 957.435768 C396.433127 961.785133 396.437704 966.197852 397.220663 970.467750 C398.162497 975.603980 399.868307 980.595436 401.040488 985.696144 C401.621298 988.223609 401.841208 990.847511 402.056692 993.441871 C402.349386 996.965675 402.246207 1000.536720 402.748892 1004.024635 C403.244040 1007.460182 404.565146 1010.780250 405.014883 1014.217628 C405.624869 1018.880348 405.278219 1023.702247 406.205984 1028.280738 C407.307760 1033.717872 410.010519 1038.870948 410.792563 1044.323097 C412.044516 1053.051124 414.798270 1061.134132 418.599905 1068.984107 C420.461661 1072.828468 421.933279 1076.865455 423.864859 1080.671485 C427.649893 1088.129981 431.471609 1095.579688 435.602347 1102.848853 C437.712149 1106.561500 440.604361 1109.821144 443.000418 1113.381446 C447.597525 1120.212257 451.572195 1127.536720 456.751883 1133.883521 C464.631033 1143.537940 474.683157 1150.508033 486.793326 1154.116676 C490.106375 1155.103736 493.460806 1156.076148 496.866324 1156.594947 C500.567129 1157.159034 504.368216 1157.033424 508.092215 1157.484474 C513.821097 1158.178077 519.521048 1159.109229 525.234732 1159.929786 C525.561270 1159.976783 525.901358 1159.919288 526.233572 1159.938209 C530.250479 1160.167701 534.295523 1160.184303 538.275259 1160.702003 C541.722159 1161.150611 545.061331 1162.431983 548.508475 1162.871681 C553.173147 1163.466651 557.994253 1163.128517 562.568045 1164.067970 C568.155081 1165.215553 573.494437 1167.521217 579.049917 1168.880470 C588.672659 1171.234962 598.435293 1173.027686 608.032217 1175.475562 C615.118155 1177.283058 621.909598 1180.844825 629.056570 1181.661964 C638.085013 1182.693946 646.955252 1184.708351 656.088064 1185.476905 C667.528616 1186.439552 678.709158 1185.924049 689.484610 1183.551246 C698.401480 1181.587745 707.802054 1178.049171 712.684622 1168.779518 C714.691336 1164.969825 716.956167 1161.103492 717.924795 1156.985572 C719.283560 1151.208595 719.285147 1145.125953 720.351919 1139.262184 C721.229788 1134.437232 723.592459 1129.790382 723.899527 1124.975440 C724.349905 1117.914039 727.690604 1111.549781 731.842642 1107.405616 C738.275687 1100.984840 742.038077 1093.340431 745.874747 1085.734840 C749.513357 1078.522193 751.421561 1070.435890 754.082327 1062.730811 C756.415457 1055.974586 758.760916 1049.222511 761.054556 1042.452857 C762.443289 1038.353980 763.920340 1034.272315 765.032950 1030.096290 C766.095633 1026.107520 766.439932 1021.915748 767.639334 1017.977516 C769.171255 1012.947120 771.586416 1008.177345 773.003897 1003.122413 C775.151480 995.463355 776.680472 987.633155 778.634512 979.916847 C780.431570 972.820289 782.481375 965.788062 784.348868 958.708839 C786.183584 951.753578 787.873221 944.759681 789.732046 937.810890 C791.094168 932.718849 792.819632 927.717811 794.030020 922.592872 C795.271475 917.336830 795.933584 911.945350 797.127066 906.676063 C798.258841 901.679115 799.922537 896.801734 801.029288 891.800331 C801.918936 887.779884 802.171011 883.621192 802.989493 879.581336 C803.844229 875.362464 805.307852 871.257545 806.018484 867.021217 C807.005179 861.138709 807.273367 855.131568 808.349417 849.269569 C809.205191 844.607093 811.226492 840.149574 811.983755 835.480018 C813.046499 828.926673 813.152334 822.220069 814.169668 815.656776 C814.946646 810.644264 816.581717 805.769996 817.681875 800.800331 C818.308218 797.970680 818.817740 795.087013 819.031912 792.201881 C819.261770 789.105384 818.741690 785.929969 819.174917 782.877845 C819.659537 779.463661 820.973501 776.175941 821.690298 772.783180 C822.323538 769.785621 822.859793 766.731483 823.022208 763.680091 C823.198172 760.374610 822.681814 757.032508 822.854117 753.726539 C823.032767 750.297157 819.639151 745.720558 816.006766 745.574867 C812.564871 745.436805 809.033682 745.467567 805.663260 746.086097 C800.636526 747.008705 795.728262 748.562415 790.747366 749.754737 C785.776968 750.944496 780.775992 752.005836 775.794424 753.149513 C770.824698 754.290443 765.843252 755.388282 760.902273 756.644019 C756.009573 757.887428 751.186697 759.408485 746.286185 760.617042 C740.997854 761.921119 735.638907 762.936866 730.341910 764.208290 C727.076407 764.992164 723.904410 766.178321 720.628165 766.902259 C713.934988 768.381202 707.178824 769.576087 700.491141 771.077674 C697.225577 771.810890 694.108145 773.236915 690.831595 773.882179 C683.086233 775.407569 675.110647 776.037513 667.556692 778.185157 C660.007559 780.331397 652.406912 781.727332 644.765616 783.281715 C638.163443 784.624793 631.790335 785.803016 625.193960 784.873206 C618.281363 783.898841 611.200430 787.562293 604.411917 783.974708 C603.917044 783.713233 603.121268 784.088722 602.478384 784.028846 C598.818960 783.687843 595.142264 783.444129 591.513357 782.892188 C588.533865 782.439124 585.642874 781.288490 582.659415 781.002357 C576.815787 780.442115 570.833792 780.830848 565.094778 779.796424 C557.600394 778.445411 550.154410 778.006629 542.577566 777.606666 C536.327200 777.276588 530.074026 777.005958 523.819937 776.685157 C517.067496 776.338966 510.415152 775.509315 503.549612 775.605750 C497.043020 775.697059 490.613699 773.860023 483.770560 774.678687 C476.825674 775.509498 469.575674 774.712501 462.565359 773.807166 C455.960318 772.954200 449.548453 772.297645 442.781424 772.552101 C436.154959 772.801246 429.427786 771.407203 422.532889 771.682899 C413.461752 772.045692 404.315939 770.632728 395.207449 769.917091 C392.503287 769.704627 389.823721 769.077186 387.120444 768.977760 C382.249167 768.798622 377.368521 768.854041 372.491781 768.850501 C368.756094 768.847816 364.965201 768.507972 361.296042 769.017616 C353.439566 770.108924 361.969015 775.525123 359.141501 778.172584 C358.725851 778.561805 359.083426 779.777198 359.083792 780.610328 C359.086783 787.221900 358.711294 793.862464 359.213675 800.435890 C359.610251 805.624793 361.150381 810.720008 362.057852 815.878761 C362.537375 818.604774 362.834341 821.370704 363.066031 824.130958 C363.527548 829.629737 363.534445 835.193092 364.396078 840.623878 C365.137594 845.297767 367.091604 849.768714 368.004965 854.428199 C369.897787 864.084937 371.247824 873.850074 373.226706 883.487342 C374.462881 889.507667 376.279715 895.426002 378.123373 901.299964 C380.526907 908.957679 383.214163 916.526344 385.781119 924.132728 C388.681082 932.725807 392.180044 941.130348 393.171438 950.292091 C393.417624 952.566993 394.750387 954.724342 396.083731 957.435768 M313.083731 689.435768 C313.417044 688.418373 314.101248 687.374977 314.028006 686.387794 C313.462515 678.766944 312.465811 671.168434 312.160208 663.540626 C311.824576 655.164649 311.956320 646.762367 312.123892 638.376319 C312.258871 631.620826 312.703909 624.869605 313.118887 618.123084 C313.213797 616.580055 313.999502 615.070411 314.037802 613.534644 C314.161093 608.590797 313.697470 603.602088 314.201285 598.706947 C314.633627 594.506202 316.113150 590.416847 317.057913 586.261939 C317.238058 585.469642 317.037680 584.598365 317.091788 583.768653 C317.310202 580.418739 317.358786 577.040809 317.852682 573.730384 C318.366629 570.285743 319.380362 566.918556 320.062735 563.494972 C320.507223 561.265113 320.864004 559.004554 321.055228 556.740516 C321.298910 553.855323 320.987204 550.884193 321.540304 548.073158 C322.459250 543.402809 324.054800 538.868019 325.031668 534.206092 C325.941885 529.862403 326.230063 525.388831 327.130850 521.042640 C328.269125 515.550514 329.887656 510.158424 331.046072 504.669776 C332.261404 498.911109 333.037161 493.059364 334.266684 487.304176 C335.336874 482.294837 336.837729 477.379066 338.026999 472.393043 C339.239645 467.308936 340.330405 462.195045 341.425131 457.083656 C342.213309 453.403358 342.864889 449.693397 343.679495 446.019264 C344.479483 442.410987 345.397635 438.828590 346.283133 435.239570 C347.509024 430.271125 348.793020 425.316596 349.977408 420.338386 C351.081320 415.698554 351.941855 410.996314 353.180105 406.394386 C354.289816 402.270210 355.968130 398.296607 357.029196 394.162483 C358.160391 389.755378 358.568350 385.153236 359.828085 380.791023 C361.272543 375.789070 363.483328 371.012641 365.040396 366.037849 C367.156058 359.278480 368.632712 352.305335 370.992911 345.639686 C374.041708 337.029334 377.737387 328.649665 381.063742 320.135200 C382.606436 316.186347 383.561606 311.966834 385.447470 308.202888 C388.294424 302.520698 391.946249 297.244239 394.843130 291.584052 C397.906149 285.599433 400.115927 279.162116 403.372031 273.296485 C407.233755 266.339851 411.918173 259.845252 416.051932 253.032661 C419.539908 247.284400 422.655691 241.310951 426.115896 235.544990 C428.561026 231.470527 431.513479 227.694557 433.869192 223.573676 C437.364554 217.459327 440.412283 211.089698 443.883353 204.960609 C446.063040 201.111762 448.810477 197.587470 451.052786 193.770484 C455.098379 186.883766 458.791495 179.786506 462.943838 172.967155 C466.333243 167.400688 470.279593 162.176444 473.796194 156.683433 C478.828055 148.823509 483.528616 140.747581 488.685965 132.973060 C492.298697 127.526954 496.212515 122.241599 500.404532 117.229514 C504.739859 112.046043 509.419607 107.124000 514.223929 102.365425 C522.108206 94.556190 530.023367 86.757224 538.293387 79.365562 C544.017813 74.249076 550.375906 69.843513 556.404776 65.062278 C556.995169 64.594047 557.262076 63.717964 557.679129 63.031181 C555.305594 62.341102 552.936453 61.093635 550.557608 61.074867 C545.305350 61.033470 540.045828 61.577766 534.793570 61.944877 C529.296072 62.329124 523.730643 62.375984 518.331412 63.337242 C513.824515 64.139655 509.517996 66.059638 505.117361 67.467994 C497.318289 69.963935 489.428885 72.211280 481.744620 75.020469 C476.796438 76.829414 472.243155 79.697120 467.337576 81.649711 C462.176199 83.704063 456.619131 84.818839 451.571951 87.092262 C444.465750 90.293113 437.769095 94.392997 430.715262 97.722877 C422.608450 101.549827 414.159170 104.664787 406.125815 108.630134 C398.697958 112.296592 391.649405 116.725913 384.385885 120.732337 C375.934744 125.393821 367.352438 129.822532 358.975210 134.611503 C351.984701 138.607780 345.087637 142.795509 338.365408 147.226432 C328.731650 153.576438 319.131369 160.002006 309.825857 166.817298 C302.538901 172.154182 295.791037 178.220893 288.674673 183.798774 C281.958151 189.063239 274.854544 193.851753 268.320120 199.325843 C260.846274 205.586982 253.556357 212.117042 246.660788 219.005012 C239.960867 225.697547 233.935293 233.060035 227.471060 239.995490 C223.535788 244.217689 219.124472 248.006202 215.307944 252.326118 C211.819632 256.274452 208.982382 260.791664 205.594565 264.837409 C203.250052 267.637245 200.091147 269.792243 197.942343 272.711036 C193.616415 278.587135 189.878348 284.893165 185.623312 290.824958 C181.412985 296.694496 176.417654 302.039375 172.575552 308.125068 C167.563711 316.063514 163.423178 324.547370 158.769705 332.717933 C153.732245 341.562690 148.312338 350.196571 143.489599 359.154151 C140.415640 364.863532 138.205435 371.032081 135.459540 376.925575 C132.422583 383.443733 129.050040 389.809059 126.130011 396.377143 C123.148947 403.082527 120.636374 409.994697 117.740057 416.739662 C114.974264 423.180580 111.804388 429.451026 109.134802 435.929389 C106.679388 441.888008 104.724600 448.050819 102.420950 454.074623 C99.265448 462.325904 95.772223 470.453895 92.816443 478.774269 C88.748968 490.223976 85.020422 501.794837 81.205389 513.333228 C79.747977 517.741126 78.240347 522.150123 77.129446 526.650916 C75.031653 535.150184 73.072180 543.688941 71.304404 552.262672 C69.723227 559.931434 68.581640 567.690040 67.052847 575.370521 C65.678793 582.273597 64.000540 589.115638 62.541266 596.002540 C61.941061 598.835121 61.385351 601.698585 61.122275 604.576637 C60.638754 609.866859 60.348807 615.176246 60.052008 620.481727 C59.855795 623.989234 59.544928 627.515907 59.716315 631.012794 C60.029883 637.410743 65.895834 636.997962 69.865469 638.965797 C75.312964 641.666236 81.024847 644.058570 85.934653 647.551246 C90.307059 650.661537 93.396597 655.537574 97.669913 658.833595 C104.540304 664.132728 111.662436 669.214820 119.155325 673.567176 C126.800131 678.007667 134.829565 681.937477 143.043432 685.203468 C150.979086 688.359046 159.374106 690.353004 167.549002 692.915565 C172.710257 694.533485 177.757468 696.595008 183.001395 697.848609 C189.233908 699.338600 195.729239 699.772437 201.913534 701.408973 C208.089499 703.043311 214.119559 704.883766 220.604574 705.089149 C223.161154 705.170143 225.630209 706.857032 228.215597 707.509803 C230.862570 708.178199 233.587881 708.672767 236.306784 708.883705 C239.397269 709.123390 242.577109 708.594337 245.611746 709.073219 C249.323935 709.658973 252.886923 711.142433 256.586996 711.867225 C259.781058 712.492896 263.070791 712.788001 266.329031 712.892372 C271.437430 713.056007 276.848257 711.869239 281.602225 713.176856 C289.428519 715.329627 297.061239 713.764198 304.766257 713.902320 C307.622702 713.953529 315.116049 708.679115 314.972128 706.451148 C314.626150 701.094398 313.747488 695.772010 313.083731 689.435768 M839.083731 928.435768 C839.083731 929.483558 839.302786 930.589332 839.043936 931.568702 C838.146841 934.962257 836.869864 938.265357 836.125662 941.687354 C834.245535 950.332557 832.746390 959.062477 830.772513 967.684791 C829.002676 975.415992 826.866873 983.066139 824.777334 990.720558 C822.488699 999.104102 820.206106 1007.493629 817.665640 1015.802467 C815.212149 1023.827369 812.287161 1031.708473 809.844534 1039.736305 C807.937308 1046.004615 806.644522 1052.460548 804.719839 1058.722755 C803.075491 1064.072486 800.789236 1069.221534 799.016897 1074.535987 C793.893606 1089.898658 789.145621 1105.391822 783.734427 1120.650855 C780.582205 1129.540138 776.490896 1138.100440 772.712942 1146.761085 C771.632376 1149.238136 770.188345 1151.558692 768.876883 1153.932105 C768.016287 1155.489601 767.094290 1157.013160 766.199759 1158.551856 C767.809073 1158.531837 769.481802 1158.791969 771.017081 1158.444679 C778.931753 1156.654395 786.897757 1155.003150 794.674612 1152.720069 C800.531180 1151.000709 806.104910 1148.335182 811.848562 1146.210060 C821.507681 1142.636207 831.341177 1139.490699 840.835745 1135.528663 C847.994864 1132.541236 854.736990 1128.555519 861.667837 1125.020240 C871.069388 1120.224342 880.573782 1115.617774 889.842703 1110.578224 C896.092032 1107.180396 902.125967 1103.347633 908.051932 1099.402686 C917.746695 1092.948463 927.462149 1086.496803 936.815665 1079.567359 C944.540762 1073.844215 951.695914 1067.357887 959.211905 1061.344825 C966.694571 1055.358497 974.511832 1049.776222 981.816275 1043.584815 C989.635733 1036.957008 997.037588 1029.835670 1004.598013 1022.903907 C1006.070669 1021.553810 1007.572134 1020.196388 1008.824454 1018.651222 C1013.847403 1012.453590 1018.771353 1006.175758 1023.744375 999.937477 C1026.661978 996.277564 1029.874258 992.819435 1032.484244 988.953224 C1041.743399 975.237525 1050.941885 961.476295 1059.879385 947.549964 C1064.957022 939.637855 1069.573477 931.423072 1074.223868 923.245765 C1077.396231 917.667213 1080.151236 911.851844 1083.302481 906.260536 C1087.828848 898.229835 1092.732535 890.407752 1097.121329 882.304969 C1100.510245 876.048133 1103.259390 869.448341 1106.466299 863.088539 C1110.920401 854.255165 1115.789786 845.623084 1120.013296 836.683692 C1124.331167 827.544471 1128.207876 818.189002 1132.042959 808.832069 C1134.916128 801.822242 1137.539419 794.702735 1140.049063 787.553199 C1142.540152 780.456886 1144.971915 773.324806 1147.025137 766.093543 C1149.364615 757.854286 1151.122183 749.451209 1153.386954 741.189002 C1155.076407 735.025672 1157.555777 729.062110 1158.988394 722.849342 C1160.887686 714.613624 1162.122916 706.224098 1163.615469 697.895667 C1164.123892 695.058998 1164.670767 692.220374 1164.978995 689.358863 C1165.357657 685.841224 1165.339468 682.277320 1165.792593 678.772193 C1166.407339 674.016456 1167.708731 669.321693 1167.994498 664.557533 C1168.485708 656.366493 1168.475943 648.142127 1168.490835 639.931373 C1168.492178 639.205543 1167.234976 638.020728 1166.381460 637.820533 C1157.741324 635.794227 1150.455191 640.647804 1142.864737 643.147621 C1134.916250 645.765174 1127.615591 650.287269 1119.858267 653.566444 C1113.142569 656.405250 1106.231070 658.809425 1099.317496 661.143043 C1093.717886 663.033241 1087.972525 664.487953 1082.317618 666.220069 C1077.643790 667.651649 1073.073721 669.476295 1068.338003 670.638465 C1062.380728 672.100440 1056.211661 672.734962 1050.302481 674.345008 C1045.240958 675.724098 1040.554190 678.603797 1035.460684 679.714027 C1023.507681 682.319496 1012.821280 687.575172 1002.577994 693.954811 C998.562002 696.455970 994.804434 699.391761 990.699576 701.725562 C986.258658 704.250526 981.629996 706.493202 976.926626 708.490455 C974.140249 709.673683 971.093252 710.445960 968.088492 710.865028 C963.601919 711.490821 958.982779 711.280006 954.542349 712.093055 C949.726919 712.974769 945.093863 715.486427 940.304922 715.719642 C934.156607 716.019142 928.343497 717.111061 922.529837 718.883582 C920.376272 719.540138 918.043814 719.619666 915.788809 719.932227 C910.895621 720.610389 905.942862 720.999915 901.122671 722.019142 C897.117178 722.866126 893.287527 724.516334 889.341971 725.681861 C883.757254 727.331703 879.390372 729.739112 875.722708 735.085670 C872.358450 739.989845 872.547659 745.147621 871.337759 750.079872 C869.886160 755.997779 870.584280 762.410987 869.856924 768.551185 C869.455069 771.943702 867.857168 775.177345 867.140127 778.555152 C866.532889 781.415809 866.407156 784.379615 866.086355 787.299781 C865.741263 790.441017 865.427786 793.585731 865.080862 796.726783 C864.693777 800.231422 864.344961 803.741920 863.866446 807.234413 C863.458914 810.209449 862.997732 813.185462 862.364310 816.118751 C861.730643 819.052711 860.657706 821.898780 860.126517 824.846351 C859.169729 830.156349 858.438772 835.508399 857.679495 840.852271 C857.044791 845.319251 856.614004 849.817542 855.888968 854.268714 C855.248648 858.199806 854.340506 862.087867 853.524588 865.989540 C852.899771 868.977149 852.194815 871.948402 851.597464 874.941322 C850.862601 878.622840 850.301016 882.341468 849.476675 886.001747 C848.897757 888.572669 847.907828 891.048866 847.275015 893.610206 C846.251883 897.751197 845.316763 901.915992 844.447439 906.092201 C843.707327 909.647498 843.214102 913.255714 842.425284 916.798988 C841.593130 920.536903 840.540213 924.225562 839.083731 928.435768 M349.083761 978.435768 C348.417074 977.214820 347.415365 976.064674 347.139761 974.761085 C345.686819 967.888770 344.523916 960.954811 343.038534 954.090064 C342.298178 950.668434 340.820242 947.400672 340.153128 943.970436 C339.390768 940.050331 339.517111 935.942848 338.606833 932.069679 C337.442404 927.115333 335.310293 922.386207 334.179617 917.426795 C332.937430 911.978309 332.562887 906.336524 331.435690 900.856056 C330.286642 895.269386 328.401510 889.828956 327.353903 884.228065 C326.250265 878.327430 326.030051 872.260597 324.906882 866.364906 C324.051291 861.873634 321.895590 857.612769 321.197165 853.112953 C320.102896 846.062721 320.027151 838.857093 319.000021 831.792884 C318.108053 825.658424 316.409140 819.645301 315.237234 813.545814 C314.655356 810.517555 314.330038 807.424781 314.110586 804.345374 C313.685354 798.377723 313.388418 792.400306 313.099509 786.423988 C313.000296 784.372291 312.780508 782.256202 313.145346 780.266639 C313.965323 775.795570 309.846243 765.769081 305.726431 764.234168 C302.287833 762.952979 298.448416 762.789832 294.843954 761.899146 C291.493094 761.071082 288.276572 759.592018 284.895895 759.017433 C279.993521 758.184181 274.955588 758.150733 270.051565 757.324378 C265.031424 756.478431 260.148337 754.792945 255.121390 754.020606 C250.321219 753.283119 245.158530 754.081519 240.616751 752.693946 C234.909018 750.950172 229.177206 750.434730 223.382773 749.592811 C216.439505 748.584022 209.640311 746.604652 202.758810 745.139198 C200.229758 744.600685 197.653006 744.249915 195.081869 743.953102 C190.448660 743.418311 185.757040 743.251380 181.175497 742.444312 C176.169089 741.562354 171.295614 739.941993 166.298819 738.984901 C160.539328 737.881751 154.703970 737.179115 148.910574 736.246559 C146.690237 735.889137 144.502569 735.332801 142.286444 734.944496 C136.786047 733.980750 131.049612 733.740455 125.820563 731.982398 C115.148199 728.394264 104.812231 723.819068 94.215491 719.988502 C84.486700 716.471778 74.632818 713.284767 64.751089 710.219886 C62.577292 709.545692 60.052237 709.956825 57.692129 710.009803 C57.477377 710.014686 57.113943 711.058265 57.110129 711.621436 C57.068167 717.842933 56.953802 724.068336 57.121191 730.285621 C57.280646 736.207435 57.750647 742.120887 58.083258 748.038001 C58.110800 748.527748 58.090002 749.024024 58.161978 749.506812 C59.128592 755.992164 60.109854 762.475318 61.077490 768.960487 C61.126135 769.286476 61.078772 769.626075 61.084479 769.959266 C61.168585 774.869972 60.928824 779.814613 61.437674 784.681007 C61.879584 788.907264 63.276724 793.025062 64.046454 797.228370 C64.574286 800.110755 64.802298 803.052833 65.072638 805.976722 C65.593466 811.609352 66.026831 817.250038 66.543036 822.883155 C66.752127 825.164710 66.866461 827.488929 67.413794 829.697059 C68.092200 832.433936 69.555609 835.008460 70.005286 837.763221 C70.967169 843.655555 70.950629 849.748451 72.327627 855.522498 C74.423865 864.312599 77.191153 872.957496 79.984305 881.563087 C83.887762 893.589576 87.480002 905.772315 92.335226 917.417030 C96.157767 926.584876 101.554999 935.116371 106.488470 943.796546 C116.495657 961.403663 130.711737 975.695655 144.303091 990.369972 C151.759421 998.420509 160.711539 1005.087989 169.010306 1012.355201 C176.787253 1019.165260 184.427267 1026.146461 192.445273 1032.661231 C197.348288 1036.645118 202.936423 1039.773170 208.061331 1043.499488 C214.053580 1047.856666 219.633719 1052.821510 225.835806 1056.838477 C233.183676 1061.597511 241.000845 1065.632667 248.621176 1069.969947 C254.103140 1073.090309 259.512442 1076.352271 265.105551 1079.259620 C271.628866 1082.650611 278.230887 1085.920020 284.957571 1088.881324 C291.860647 1091.920387 298.980429 1094.463355 305.958243 1097.337989 C311.297018 1099.537330 316.493338 1102.095313 321.881247 1104.159034 C326.711355 1106.009010 331.746695 1107.315284 336.635397 1109.022193 C340.999319 1110.545875 345.200979 1112.589820 349.631705 1113.851295 C354.053732 1115.110206 358.725058 1115.470191 363.191305 1116.602271 C370.912375 1118.559425 378.554617 1120.826393 386.247732 1122.897193 C386.771048 1123.038185 387.480154 1122.698829 388.015433 1122.416969 C388.129202 1122.357032 387.948233 1121.529762 387.754172 1121.127906 C386.742239 1119.032691 385.430319 1117.045631 384.693472 1114.862159 C383.318899 1110.788917 382.492300 1106.524635 381.016318 1102.493995 C379.728079 1098.976051 377.399679 1095.806373 376.346792 1092.241798 C374.291128 1085.282081 373.000143 1078.098853 371.024191 1071.112403 C369.345297 1065.176490 367.068106 1059.412208 365.236227 1053.515724 C364.765646 1052.001075 365.193777 1050.224708 364.834158 1048.654518 C363.664480 1043.547218 362.223990 1038.501441 361.072470 1033.390479 C359.955771 1028.434059 359.136282 1023.411109 358.055441 1018.445899 C357.272360 1014.848609 356.232138 1011.308204 355.386496 1007.723609 C354.514456 1004.026954 353.789145 1000.295631 352.910086 996.600685 C351.506918 990.703102 350.029654 984.823219 349.083761 978.435768 z"/></svg>